<svg xmlns="http://www.w3.org/2000/svg" xmlns:xlink="http://www.w3.org/1999/xlink" width="500" zoomAndPan="magnify" viewBox="0 0 375 374.999991" height="500" preserveAspectRatio="xMidYMid meet" version="1.0"><defs><g><g id="id1"/></g><clipPath id="id2"><path d="M 187.5 125 L 330 125 L 330 161 L 187.5 161 Z M 187.5 125 " clip-rule="nonzero"/></clipPath><clipPath id="id3"><path d="M 275 104.46875 L 375 104.46875 L 375 148 L 275 148 Z M 275 104.46875 " clip-rule="nonzero"/></clipPath><clipPath id="id4"><path d="M 45 125 L 187.5 125 L 187.5 161 L 45 161 Z M 45 125 " clip-rule="nonzero"/></clipPath><clipPath id="id5"><path d="M 0 104.46875 L 100 104.46875 L 100 148 L 0 148 Z M 0 104.46875 " clip-rule="nonzero"/></clipPath></defs><g clip-path="url(#id2)"><path fill="rgb(0%, 76.078796%, 79.60968%)" d="M 187.855469 129.003906 C 229.046875 115.046875 260.042969 149.183594 293.886719 152.058594 C 306.414062 153.1875 317.371094 150.507812 329.316406 147.035156 C 308.109375 162.6875 286.90625 162.792969 265.007812 154.648438 C 238.75 144.550781 224.132812 129.921875 187.855469 129.003906 Z M 187.855469 129.003906 " fill-opacity="1" fill-rule="nonzero"/></g><g clip-path="url(#id3)"><path fill="rgb(0%, 76.078796%, 79.60968%)" d="M 275.257812 140.019531 C 309.4375 139.140625 341.917969 140.601562 365.582031 115.519531 C 370.882812 109.917969 373.566406 105.191406 374.644531 104.46875 C 374.273438 104.980469 373.992188 107.695312 372.648438 111.519531 C 360.207031 147.828125 311.558594 155.707031 275.257812 140.019531 Z M 275.257812 140.019531 " fill-opacity="1" fill-rule="nonzero"/></g><path fill="rgb(0%, 76.078796%, 79.60968%)" d="M 206.570312 120 C 226.730469 112.226562 246.046875 112.3125 264.144531 116.085938 C 291.570312 122.148438 297.71875 129.832031 334.671875 129.355469 C 309.789062 140.25 287.894531 132.671875 269.535156 127.839844 C 240.214844 119.644531 226.839844 120.632812 206.570312 120 Z M 206.570312 120 " fill-opacity="1" fill-rule="nonzero"/><path fill="rgb(0%, 76.078796%, 79.60968%)" d="M 242.035156 152.640625 C 296.449219 168.308594 334.125 177.859375 363.265625 129.816406 C 355.894531 176.734375 296.519531 192.59375 242.035156 152.640625 Z M 242.035156 152.640625 " fill-opacity="1" fill-rule="nonzero"/><g clip-path="url(#id4)"><path fill="rgb(0%, 76.078796%, 79.60968%)" d="M 187.144531 129.003906 C 145.953125 115.046875 114.957031 149.183594 81.113281 152.058594 C 68.585938 153.1875 57.628906 150.507812 45.683594 147.035156 C 66.890625 162.6875 88.09375 162.792969 109.992188 154.648438 C 136.25 144.550781 150.867188 129.921875 187.144531 129.003906 Z M 187.144531 129.003906 " fill-opacity="1" fill-rule="nonzero"/></g><g clip-path="url(#id5)"><path fill="rgb(0%, 76.078796%, 79.60968%)" d="M 99.742188 140.019531 C 65.5625 139.140625 33.082031 140.601562 9.417969 115.519531 C 4.117188 109.917969 1.433594 105.191406 0.355469 104.46875 C 0.726562 104.980469 1.007812 107.695312 2.351562 111.519531 C 14.792969 147.828125 63.441406 155.707031 99.742188 140.019531 Z M 99.742188 140.019531 " fill-opacity="1" fill-rule="nonzero"/></g><path fill="rgb(0%, 76.078796%, 79.60968%)" d="M 168.429688 120 C 148.269531 112.226562 128.953125 112.3125 110.855469 116.085938 C 83.429688 122.148438 77.28125 129.832031 40.328125 129.355469 C 65.210938 140.25 87.105469 132.671875 105.464844 127.839844 C 134.785156 119.644531 148.160156 120.632812 168.429688 120 Z M 168.429688 120 " fill-opacity="1" fill-rule="nonzero"/><path fill="rgb(0%, 76.078796%, 79.60968%)" d="M 132.964844 152.640625 C 78.550781 168.308594 40.875 177.859375 11.734375 129.816406 C 19.105469 176.734375 78.480469 192.59375 132.964844 152.640625 Z M 132.964844 152.640625 " fill-opacity="1" fill-rule="nonzero"/><g fill="rgb(0%, 0%, 0%)" fill-opacity="1"><g transform="translate(91.91315, 246.067146)"><g><path d="M 43.667969 -18.640625 C 43.402344 -18.816406 42.957031 -18.550781 42.871094 -18.195312 C 41.980469 -14.910156 39.585938 -8.34375 36.566406 -4.171875 C 36.210938 -3.726562 34.882812 -2.308594 33.550781 -2.664062 C 33.285156 -2.664062 33.105469 -2.929688 32.839844 -3.285156 C 30 -8.253906 32.394531 -33.195312 41.449219 -66.300781 C 41.894531 -68.078125 41.183594 -69.941406 39.585938 -70.917969 L 38.253906 -71.714844 C 37.542969 -72.070312 36.835938 -72.160156 36.125 -71.894531 C 35.414062 -71.539062 34.882812 -70.917969 34.703125 -70.207031 C 33.015625 -62.929688 31.332031 -55.382812 29.910156 -48.195312 C 26.003906 -36.300781 20.148438 -19.082031 14.46875 -10.207031 L 14.46875 -10.117188 C 14.378906 -10.117188 12.425781 -7.457031 10.03125 -7.722656 C 9.585938 -7.722656 9.230469 -7.988281 8.875 -8.519531 C 6.035156 -12.515625 6.035156 -28.226562 11.359375 -50.503906 C 11.804688 -52.277344 11.003906 -54.140625 9.410156 -55.027344 L 7.722656 -56.003906 C 7.101562 -56.359375 6.480469 -56.359375 5.859375 -56.09375 C 5.238281 -55.828125 4.792969 -55.296875 4.703125 -54.675781 C 1.421875 -41.09375 -0.175781 -29.023438 0 -19.96875 C 0.175781 -10.472656 2.484375 -4.703125 6.566406 -3.371094 C 7.011719 -3.195312 7.367188 -3.105469 7.8125 -3.105469 C 10.296875 -3.105469 12.871094 -5.414062 15.355469 -9.230469 C 15.445312 -9.320312 15.445312 -9.410156 15.53125 -9.410156 C 15.53125 -9.410156 15.53125 -9.496094 15.621094 -9.496094 C 19.792969 -15.976562 23.964844 -26.714844 28.046875 -38.609375 C 24.941406 -21.210938 23.519531 -6.566406 27.070312 -1.242188 C 27.871094 0 28.933594 0.710938 30.175781 0.976562 C 30.53125 1.066406 30.796875 1.066406 31.152344 1.066406 C 33.550781 1.066406 35.769531 -0.796875 37.632812 -3.371094 L 37.722656 -3.460938 C 37.808594 -3.550781 37.808594 -3.640625 37.808594 -3.640625 C 41.628906 -9.054688 44.023438 -17.308594 44.199219 -17.839844 C 44.289062 -18.195312 44.023438 -18.550781 43.667969 -18.640625 Z M 43.667969 -18.640625 "/></g></g></g><g fill="rgb(0%, 0%, 0%)" fill-opacity="1"><g transform="translate(134.600636, 246.067146)"><g><path d="M 30.53125 -18.371094 C 30.175781 -18.460938 29.824219 -18.285156 29.644531 -18.019531 C 27.601562 -12.070312 24.054688 -6.214844 21.921875 -4.527344 C 21.835938 -4.4375 21.835938 -4.4375 21.746094 -4.4375 C 21.480469 -4.171875 21.210938 -4.082031 20.945312 -4.082031 C 20.859375 -3.992188 20.589844 -3.992188 20.324219 -4.527344 C 19.082031 -6.566406 21.746094 -16.066406 23.519531 -22.367188 C 24.851562 -26.804688 25.5625 -29.46875 25.472656 -30.445312 C 25.207031 -33.285156 23.433594 -36.300781 20.769531 -36.300781 C 19.082031 -36.300781 17.128906 -35.148438 15 -33.015625 C 11.183594 -29.113281 7.457031 -22.632812 5.503906 -17.839844 C 5.589844 -22.1875 5.859375 -26.628906 6.480469 -29.734375 C 6.835938 -31.066406 6.214844 -32.484375 5.058594 -33.195312 L 3.460938 -34.171875 C 3.019531 -34.4375 2.574219 -34.4375 2.128906 -34.261719 C 1.6875 -34.082031 1.421875 -33.726562 1.242188 -33.285156 C -0.175781 -27.335938 -0.621094 -14.378906 1.066406 -6.746094 C 1.421875 -5.324219 2.574219 -4.347656 3.992188 -4.261719 L 4.527344 -4.171875 L 4.617188 -4.171875 C 5.058594 -4.171875 5.414062 -4.347656 5.679688 -4.703125 C 6.035156 -4.96875 6.214844 -5.414062 6.125 -5.859375 C 5.859375 -7.542969 5.679688 -10.117188 5.589844 -12.957031 C 5.589844 -16.152344 10.5625 -26.628906 15.976562 -32.042969 C 16.773438 -32.929688 17.574219 -33.550781 18.285156 -34.082031 C 18.816406 -34.347656 19.703125 -34.527344 20.058594 -34.261719 C 20.414062 -33.90625 20.414062 -33.015625 20.058594 -31.863281 L 19.261719 -29.199219 C 17.484375 -23.609375 14.199219 -13.136719 14.113281 -7.1875 C 14.113281 -4.4375 14.554688 -2.929688 16.953125 -2.042969 C 17.75 -1.773438 18.460938 -1.597656 19.082031 -1.597656 C 20.859375 -1.597656 21.921875 -2.664062 22.542969 -3.371094 L 22.722656 -3.460938 C 25.652344 -5.769531 29.199219 -12.691406 30.886719 -17.574219 C 31.066406 -17.839844 30.886719 -18.285156 30.53125 -18.371094 Z M 30.53125 -18.371094 "/></g></g></g><g fill="rgb(0%, 0%, 0%)" fill-opacity="1"><g transform="translate(164.153512, 246.067146)"><g><path d="M 35.324219 -17.75 C 35.324219 -18.105469 35.058594 -18.371094 34.703125 -18.371094 C 31.507812 -18.371094 29.46875 -22.101562 29.023438 -23.785156 C 28.933594 -24.054688 28.667969 -24.230469 28.402344 -24.230469 C 28.046875 -24.230469 27.78125 -23.964844 27.78125 -23.609375 C 27.515625 -20.148438 26.628906 -15.355469 25.207031 -12.160156 C 25.03125 -11.804688 24.40625 -11.003906 23.519531 -11.003906 C 23.078125 -11.003906 22.722656 -11.183594 22.367188 -11.539062 C 20.589844 -13.667969 21.566406 -21.210938 22.101562 -25.296875 C 22.367188 -26.894531 21.390625 -28.226562 19.882812 -28.578125 L 18.992188 -28.757812 C 18.550781 -28.847656 18.019531 -28.757812 17.664062 -28.492188 C 17.21875 -28.226562 16.953125 -27.78125 16.863281 -27.335938 C 16.6875 -26.714844 16.332031 -24.496094 16.152344 -21.746094 C 15.175781 -17.574219 13.226562 -9.585938 10.5625 -4.882812 L 10.382812 -4.703125 C 10.382812 -4.617188 9.675781 -3.019531 8.433594 -3.195312 C 8.253906 -3.285156 8.078125 -3.460938 7.898438 -3.726562 C 6.125 -6.480469 5.859375 -18.816406 9.410156 -31.066406 C 9.941406 -32.664062 9.320312 -34.4375 7.988281 -35.324219 L 6.746094 -36.210938 C 6.214844 -36.65625 5.589844 -36.746094 4.96875 -36.566406 C 4.4375 -36.390625 3.90625 -35.945312 3.726562 -35.324219 C 1.597656 -29.824219 0.0898438 -21.835938 -0.175781 -15.089844 C -0.355469 -9.140625 0.355469 -1.773438 4.703125 0.0898438 C 5.238281 0.265625 5.679688 0.445312 6.214844 0.445312 C 6.835938 0.445312 7.367188 0.265625 7.988281 -0.0898438 C 9.140625 -0.710938 10.117188 -1.773438 11.09375 -3.285156 C 11.359375 -3.726562 11.539062 -4.082031 11.628906 -4.082031 L 11.628906 -4.171875 C 13.492188 -7.542969 15 -12.070312 16.066406 -16.066406 C 16.332031 -13.3125 16.953125 -10.652344 18.285156 -8.964844 C 19.261719 -7.898438 20.414062 -7.277344 21.835938 -7.277344 C 26.359375 -7.277344 28.136719 -16.421875 28.757812 -21.035156 C 29.910156 -19.171875 31.953125 -17.128906 34.703125 -17.128906 C 35.058594 -17.128906 35.324219 -17.394531 35.324219 -17.75 Z M 35.324219 -17.75 "/></g></g></g><g fill="rgb(0%, 0%, 0%)" fill-opacity="1"><g transform="translate(198.853735, 246.067146)"><g><path d="M 2.21875 -2.128906 C 2.664062 -2.042969 3.105469 -1.953125 3.550781 -1.953125 C 6.214844 -1.953125 9.140625 -4.261719 12.425781 -8.964844 C 15.175781 -12.957031 17.21875 -17.21875 17.21875 -17.21875 C 17.394531 -17.574219 17.21875 -17.929688 16.863281 -18.105469 C 16.597656 -18.285156 16.152344 -18.105469 16.066406 -17.839844 C 14.46875 -14.378906 10.296875 -7.011719 6.390625 -4.261719 L 6.300781 -4.261719 C 5.945312 -3.992188 5.859375 -4.082031 5.769531 -4.171875 C 5.148438 -4.527344 4.347656 -6.566406 4.703125 -10.738281 C 5.238281 -16.066406 7.457031 -22.722656 9.320312 -27.160156 C 9.941406 -28.578125 9.410156 -30.265625 8.078125 -31.152344 L 6.65625 -32.042969 C 6.125 -32.394531 5.589844 -32.394531 5.058594 -32.308594 C 4.527344 -32.128906 4.082031 -31.6875 3.90625 -31.152344 C 1.863281 -26.449219 -2.929688 -10.5625 -0.175781 -4.4375 C 0.355469 -3.285156 1.152344 -2.484375 2.21875 -2.128906 Z M 9.585938 -34.347656 C 10.03125 -34.171875 10.382812 -34.171875 10.738281 -34.171875 C 11.449219 -34.171875 12.335938 -34.613281 12.601562 -35.148438 L 14.644531 -38.609375 C 15.175781 -39.761719 15.265625 -40.738281 15 -41.804688 C 14.554688 -42.871094 13.667969 -43.757812 12.601562 -44.289062 L 12.335938 -44.378906 C 11.183594 -44.910156 9.941406 -44.46875 9.410156 -43.492188 L 7.1875 -38.699219 C 6.566406 -37.277344 7.101562 -35.679688 8.519531 -34.96875 Z M 9.585938 -34.347656 "/></g></g></g><g fill="rgb(0%, 0%, 0%)" fill-opacity="1"><g transform="translate(214.828262, 246.067146)"><g><path d="M 30.53125 -18.371094 C 30.175781 -18.460938 29.824219 -18.285156 29.644531 -18.019531 C 27.601562 -12.070312 24.054688 -6.214844 21.921875 -4.527344 C 21.835938 -4.4375 21.835938 -4.4375 21.746094 -4.4375 C 21.480469 -4.171875 21.210938 -4.082031 20.945312 -4.082031 C 20.859375 -3.992188 20.589844 -3.992188 20.324219 -4.527344 C 19.082031 -6.566406 21.746094 -16.066406 23.519531 -22.367188 C 24.851562 -26.804688 25.5625 -29.46875 25.472656 -30.445312 C 25.207031 -33.285156 23.433594 -36.300781 20.769531 -36.300781 C 19.082031 -36.300781 17.128906 -35.148438 15 -33.015625 C 11.183594 -29.113281 7.457031 -22.632812 5.503906 -17.839844 C 5.589844 -22.1875 5.859375 -26.628906 6.480469 -29.734375 C 6.835938 -31.066406 6.214844 -32.484375 5.058594 -33.195312 L 3.460938 -34.171875 C 3.019531 -34.4375 2.574219 -34.4375 2.128906 -34.261719 C 1.6875 -34.082031 1.421875 -33.726562 1.242188 -33.285156 C -0.175781 -27.335938 -0.621094 -14.378906 1.066406 -6.746094 C 1.421875 -5.324219 2.574219 -4.347656 3.992188 -4.261719 L 4.527344 -4.171875 L 4.617188 -4.171875 C 5.058594 -4.171875 5.414062 -4.347656 5.679688 -4.703125 C 6.035156 -4.96875 6.214844 -5.414062 6.125 -5.859375 C 5.859375 -7.542969 5.679688 -10.117188 5.589844 -12.957031 C 5.589844 -16.152344 10.5625 -26.628906 15.976562 -32.042969 C 16.773438 -32.929688 17.574219 -33.550781 18.285156 -34.082031 C 18.816406 -34.347656 19.703125 -34.527344 20.058594 -34.261719 C 20.414062 -33.90625 20.414062 -33.015625 20.058594 -31.863281 L 19.261719 -29.199219 C 17.484375 -23.609375 14.199219 -13.136719 14.113281 -7.1875 C 14.113281 -4.4375 14.554688 -2.929688 16.953125 -2.042969 C 17.75 -1.773438 18.460938 -1.597656 19.082031 -1.597656 C 20.859375 -1.597656 21.921875 -2.664062 22.542969 -3.371094 L 22.722656 -3.460938 C 25.652344 -5.769531 29.199219 -12.691406 30.886719 -17.574219 C 31.066406 -17.839844 30.886719 -18.285156 30.53125 -18.371094 Z M 30.53125 -18.371094 "/></g></g></g><g fill="rgb(0%, 0%, 0%)" fill-opacity="1"><g transform="translate(244.381137, 246.067146)"><g><path d="M 39.761719 -18.371094 C 39.496094 -18.550781 39.054688 -18.371094 38.875 -18.105469 C 36.746094 -14.113281 31.066406 -5.238281 26.539062 -1.953125 C 26.539062 -1.863281 26.449219 -1.863281 26.449219 -1.863281 C 26.003906 -1.597656 25.382812 -1.332031 24.761719 -1.773438 C 24.054688 -2.308594 21.035156 -5.679688 25.03125 -24.40625 C 35.679688 -35.148438 47.75 -56.804688 46.152344 -65.503906 C 45.886719 -67.1875 45 -68.34375 43.757812 -68.964844 C 41.894531 -69.675781 40.03125 -69.585938 37.988281 -68.609375 C 31.066406 -65.058594 24.140625 -51.125 19.792969 -32.21875 L 19.527344 -31.152344 C 18.992188 -32.042969 18.371094 -32.839844 17.484375 -33.371094 C 15.976562 -34.347656 14.113281 -34.4375 12.070312 -33.640625 C 7.1875 -31.863281 -0.175781 -24.320312 -0.445312 -13.757812 C -0.53125 -9.320312 1.152344 -7.367188 2.664062 -6.480469 C 3.640625 -5.945312 4.792969 -5.679688 5.945312 -5.679688 C 7.457031 -5.679688 9.054688 -6.125 10.207031 -6.835938 C 13.136719 -8.609375 15.089844 -11.183594 16.773438 -14.113281 C 16.332031 -8.164062 16.953125 -4.261719 18.550781 -1.953125 C 19.617188 -0.445312 21.125 0.445312 23.078125 0.621094 C 23.164062 0.710938 23.34375 0.710938 23.519531 0.710938 C 24.496094 0.710938 25.738281 0.265625 26.980469 -0.621094 C 27.070312 -0.710938 27.160156 -0.710938 27.160156 -0.796875 C 27.25 -0.796875 27.25 -0.796875 27.25 -0.886719 C 29.289062 -2.308594 31.597656 -4.792969 34.082031 -8.253906 C 37.457031 -12.78125 40.03125 -17.394531 40.03125 -17.484375 C 40.207031 -17.75 40.117188 -18.195312 39.761719 -18.371094 Z M 27.601562 -35.058594 C 33.90625 -58.402344 38.964844 -63.992188 41.449219 -65.324219 C 42.25 -65.769531 42.871094 -65.859375 43.492188 -65.589844 C 44.734375 -65.234375 44.910156 -63.285156 45 -62.929688 C 44.289062 -54.40625 35.148438 -37.277344 25.5625 -26.894531 Z M 17.042969 -17.484375 C 15.089844 -13.578125 13.046875 -10.117188 9.585938 -7.988281 C 8.964844 -7.722656 8.078125 -7.542969 7.367188 -8.253906 C 5.859375 -9.675781 5.414062 -13.492188 7.722656 -19.082031 C 11.273438 -27.871094 16.953125 -30.265625 17.574219 -30.265625 C 18.371094 -30.265625 18.640625 -29.824219 18.816406 -29.554688 C 18.90625 -29.289062 18.992188 -29.023438 18.992188 -28.847656 C 18.105469 -24.496094 17.484375 -20.769531 17.042969 -17.484375 Z M 17.042969 -17.484375 "/></g></g></g><g fill="rgb(0%, 0%, 0%)" fill-opacity="1"><g transform="translate(14.250004, 308.548134)"><g><path d="M 4.6875 -6.109375 L 8.578125 -6.109375 L 8.578125 -3.375 C 8.578125 -2.84375 8.488281 -2.351562 8.3125 -1.90625 C 8.144531 -1.46875 7.90625 -1.09375 7.59375 -0.78125 C 7.28125 -0.476562 6.898438 -0.242188 6.453125 -0.078125 C 6.015625 0.0859375 5.515625 0.171875 4.953125 0.171875 C 4.398438 0.171875 3.894531 0.0859375 3.4375 -0.078125 C 2.988281 -0.242188 2.609375 -0.476562 2.296875 -0.78125 C 1.984375 -1.09375 1.738281 -1.46875 1.5625 -1.90625 C 1.394531 -2.351562 1.3125 -2.84375 1.3125 -3.375 L 1.3125 -8.5 C 1.3125 -9.03125 1.398438 -9.515625 1.578125 -9.953125 C 1.753906 -10.390625 2 -10.757812 2.3125 -11.0625 C 2.625 -11.375 3.003906 -11.613281 3.453125 -11.78125 C 3.910156 -11.957031 4.410156 -12.046875 4.953125 -12.046875 C 5.953125 -12.046875 6.769531 -11.789062 7.40625 -11.28125 C 8.039062 -10.78125 8.457031 -10.046875 8.65625 -9.078125 L 7.140625 -9.078125 C 7.035156 -9.585938 6.789062 -9.988281 6.40625 -10.28125 C 6.019531 -10.570312 5.535156 -10.71875 4.953125 -10.71875 C 4.285156 -10.71875 3.757812 -10.519531 3.375 -10.125 C 3 -9.726562 2.8125 -9.1875 2.8125 -8.5 L 2.8125 -3.375 C 2.8125 -2.6875 3 -2.144531 3.375 -1.75 C 3.757812 -1.351562 4.285156 -1.15625 4.953125 -1.15625 C 5.609375 -1.15625 6.128906 -1.351562 6.515625 -1.75 C 6.898438 -2.144531 7.09375 -2.6875 7.09375 -3.375 L 7.09375 -4.78125 L 4.6875 -4.78125 Z M 4.6875 -6.109375 "/></g></g></g><g fill="rgb(0%, 0%, 0%)" fill-opacity="1"><g transform="translate(24.150035, 308.548134)"><g><path d="M 1.484375 -9.078125 L 2.96875 -9.078125 L 2.96875 -3.203125 C 2.96875 -1.828125 3.625 -1.140625 4.9375 -1.140625 C 6.269531 -1.140625 6.9375 -1.828125 6.9375 -3.203125 L 6.9375 -9.078125 L 8.421875 -9.078125 L 8.421875 -3.203125 C 8.421875 -2.117188 8.117188 -1.285156 7.515625 -0.703125 C 6.910156 -0.117188 6.050781 0.171875 4.9375 0.171875 C 3.832031 0.171875 2.976562 -0.117188 2.375 -0.703125 C 1.78125 -1.296875 1.484375 -2.128906 1.484375 -3.203125 Z M 1.484375 -9.078125 "/></g></g></g><g fill="rgb(0%, 0%, 0%)" fill-opacity="1"><g transform="translate(34.050066, 308.548134)"><g><path d="M 1.5625 0 L 1.5625 -1.359375 L 4.875 -1.359375 L 4.875 -7.71875 L 1.984375 -7.71875 L 1.984375 -9.078125 L 6.359375 -9.078125 L 6.359375 -1.359375 L 9.078125 -1.359375 L 9.078125 0 Z M 5.203125 -12.625 L 5.53125 -12.625 C 5.84375 -12.625 6.097656 -12.53125 6.296875 -12.34375 C 6.492188 -12.15625 6.59375 -11.910156 6.59375 -11.609375 C 6.59375 -11.316406 6.492188 -11.082031 6.296875 -10.90625 C 6.097656 -10.726562 5.84375 -10.640625 5.53125 -10.640625 L 5.203125 -10.640625 C 4.878906 -10.640625 4.617188 -10.722656 4.421875 -10.890625 C 4.222656 -11.066406 4.125 -11.304688 4.125 -11.609375 C 4.125 -11.910156 4.222656 -12.15625 4.421875 -12.34375 C 4.617188 -12.53125 4.878906 -12.625 5.203125 -12.625 Z M 5.203125 -12.625 "/></g></g></g><g fill="rgb(0%, 0%, 0%)" fill-opacity="1"><g transform="translate(43.950098, 308.548134)"><g><path d="M 1.3125 -5.6875 C 1.3125 -6.238281 1.382812 -6.734375 1.53125 -7.171875 C 1.6875 -7.617188 1.894531 -7.992188 2.15625 -8.296875 C 2.425781 -8.597656 2.742188 -8.828125 3.109375 -8.984375 C 3.484375 -9.148438 3.90625 -9.234375 4.375 -9.234375 C 5.039062 -9.234375 5.59375 -9.082031 6.03125 -8.78125 C 6.476562 -8.476562 6.769531 -8.050781 6.90625 -7.5 L 7.046875 -7.5 C 7.035156 -7.6875 7.023438 -7.875 7.015625 -8.0625 C 6.992188 -8.226562 6.976562 -8.398438 6.96875 -8.578125 C 6.96875 -8.765625 6.96875 -8.929688 6.96875 -9.078125 L 6.96875 -12.046875 L 8.453125 -12.046875 L 8.453125 0 L 7.046875 0 L 7.046875 -1.5625 L 6.90625 -1.5625 C 6.769531 -1.019531 6.476562 -0.59375 6.03125 -0.28125 C 5.59375 0.0195312 5.039062 0.171875 4.375 0.171875 C 3.90625 0.171875 3.484375 0.0859375 3.109375 -0.078125 C 2.742188 -0.242188 2.425781 -0.476562 2.15625 -0.78125 C 1.894531 -1.082031 1.6875 -1.453125 1.53125 -1.890625 C 1.382812 -2.335938 1.3125 -2.832031 1.3125 -3.375 Z M 4.9375 -1.125 C 5.550781 -1.125 6.039062 -1.328125 6.40625 -1.734375 C 6.78125 -2.140625 6.96875 -2.6875 6.96875 -3.375 L 6.96875 -5.6875 C 6.96875 -6.382812 6.78125 -6.9375 6.40625 -7.34375 C 6.039062 -7.75 5.550781 -7.953125 4.9375 -7.953125 C 4.257812 -7.953125 3.734375 -7.753906 3.359375 -7.359375 C 2.992188 -6.960938 2.8125 -6.40625 2.8125 -5.6875 L 2.8125 -3.375 C 2.8125 -2.6875 3 -2.140625 3.375 -1.734375 C 3.75 -1.328125 4.269531 -1.125 4.9375 -1.125 Z M 4.9375 -1.125 "/></g></g></g><g fill="rgb(0%, 0%, 0%)" fill-opacity="1"><g transform="translate(53.850129, 308.548134)"><g><path d="M 4.953125 0.171875 C 3.816406 0.171875 2.925781 -0.132812 2.28125 -0.75 C 1.632812 -1.375 1.3125 -2.222656 1.3125 -3.296875 L 1.3125 -5.78125 C 1.3125 -6.851562 1.632812 -7.695312 2.28125 -8.3125 C 2.925781 -8.925781 3.816406 -9.234375 4.953125 -9.234375 C 6.085938 -9.234375 6.972656 -8.925781 7.609375 -8.3125 C 8.253906 -7.695312 8.578125 -6.851562 8.578125 -5.78125 L 8.578125 -4.109375 L 2.8125 -4.109375 L 2.8125 -3.375 C 2.8125 -2.6875 3 -2.144531 3.375 -1.75 C 3.75 -1.351562 4.273438 -1.15625 4.953125 -1.15625 C 5.441406 -1.15625 5.867188 -1.226562 6.234375 -1.375 C 6.597656 -1.53125 6.867188 -1.757812 7.046875 -2.0625 L 8.53125 -2.0625 C 8.34375 -1.363281 7.925781 -0.816406 7.28125 -0.421875 C 6.632812 -0.0234375 5.859375 0.171875 4.953125 0.171875 Z M 7.09375 -5.34375 L 7.09375 -5.78125 C 7.09375 -6.457031 6.90625 -6.984375 6.53125 -7.359375 C 6.15625 -7.734375 5.628906 -7.921875 4.953125 -7.921875 C 4.265625 -7.921875 3.734375 -7.734375 3.359375 -7.359375 C 2.992188 -6.984375 2.8125 -6.457031 2.8125 -5.78125 L 2.8125 -5.34375 Z M 7.09375 -5.34375 "/></g></g></g><g fill="rgb(0%, 0%, 0%)" fill-opacity="1"><g transform="translate(63.75016, 308.548134)"><g><path d="M 1.3125 -5.6875 C 1.3125 -6.238281 1.382812 -6.734375 1.53125 -7.171875 C 1.6875 -7.617188 1.894531 -7.992188 2.15625 -8.296875 C 2.425781 -8.597656 2.742188 -8.828125 3.109375 -8.984375 C 3.484375 -9.148438 3.90625 -9.234375 4.375 -9.234375 C 5.039062 -9.234375 5.59375 -9.082031 6.03125 -8.78125 C 6.476562 -8.476562 6.769531 -8.050781 6.90625 -7.5 L 7.046875 -7.5 C 7.035156 -7.6875 7.023438 -7.875 7.015625 -8.0625 C 6.992188 -8.226562 6.976562 -8.398438 6.96875 -8.578125 C 6.96875 -8.765625 6.96875 -8.929688 6.96875 -9.078125 L 6.96875 -12.046875 L 8.453125 -12.046875 L 8.453125 0 L 7.046875 0 L 7.046875 -1.5625 L 6.90625 -1.5625 C 6.769531 -1.019531 6.476562 -0.59375 6.03125 -0.28125 C 5.59375 0.0195312 5.039062 0.171875 4.375 0.171875 C 3.90625 0.171875 3.484375 0.0859375 3.109375 -0.078125 C 2.742188 -0.242188 2.425781 -0.476562 2.15625 -0.78125 C 1.894531 -1.082031 1.6875 -1.453125 1.53125 -1.890625 C 1.382812 -2.335938 1.3125 -2.832031 1.3125 -3.375 Z M 4.9375 -1.125 C 5.550781 -1.125 6.039062 -1.328125 6.40625 -1.734375 C 6.78125 -2.140625 6.96875 -2.6875 6.96875 -3.375 L 6.96875 -5.6875 C 6.96875 -6.382812 6.78125 -6.9375 6.40625 -7.34375 C 6.039062 -7.75 5.550781 -7.953125 4.9375 -7.953125 C 4.257812 -7.953125 3.734375 -7.753906 3.359375 -7.359375 C 2.992188 -6.960938 2.8125 -6.40625 2.8125 -5.6875 L 2.8125 -3.375 C 2.8125 -2.6875 3 -2.140625 3.375 -1.734375 C 3.75 -1.328125 4.269531 -1.125 4.9375 -1.125 Z M 4.9375 -1.125 "/></g></g></g><g fill="rgb(0%, 0%, 0%)" fill-opacity="1"><g transform="translate(73.650192, 308.548134)"><g/></g></g><g fill="rgb(0%, 0%, 0%)" fill-opacity="1"><g transform="translate(83.550223, 308.548134)"><g><path d="M 1.234375 0 L 1.234375 -11.875 L 3.078125 -11.875 L 4.53125 -7.859375 C 4.59375 -7.734375 4.644531 -7.585938 4.6875 -7.421875 C 4.726562 -7.265625 4.765625 -7.125 4.796875 -7 C 4.847656 -6.832031 4.894531 -6.671875 4.9375 -6.515625 L 5.03125 -6.515625 C 5.070312 -6.671875 5.117188 -6.832031 5.171875 -7 C 5.210938 -7.125 5.253906 -7.265625 5.296875 -7.421875 C 5.347656 -7.585938 5.394531 -7.734375 5.4375 -7.859375 L 6.8125 -11.875 L 8.65625 -11.875 L 8.65625 0 L 7.296875 0 L 7.296875 -8.328125 C 7.296875 -8.503906 7.296875 -8.703125 7.296875 -8.921875 C 7.304688 -9.140625 7.320312 -9.351562 7.34375 -9.5625 C 7.351562 -9.8125 7.363281 -10.054688 7.375 -10.296875 L 7.28125 -10.296875 C 7.207031 -10.066406 7.140625 -9.84375 7.078125 -9.625 C 7.023438 -9.425781 6.960938 -9.207031 6.890625 -8.96875 C 6.816406 -8.738281 6.75 -8.523438 6.6875 -8.328125 L 5.65625 -5.28125 L 4.28125 -5.28125 L 3.25 -8.328125 C 3.1875 -8.535156 3.113281 -8.753906 3.03125 -8.984375 C 2.957031 -9.222656 2.894531 -9.441406 2.84375 -9.640625 C 2.769531 -9.867188 2.703125 -10.09375 2.640625 -10.3125 L 2.5625 -10.3125 C 2.570312 -10.070312 2.582031 -9.832031 2.59375 -9.59375 C 2.59375 -9.394531 2.59375 -9.179688 2.59375 -8.953125 C 2.601562 -8.722656 2.609375 -8.515625 2.609375 -8.328125 L 2.609375 0 Z M 1.234375 0 "/></g></g></g><g fill="rgb(0%, 0%, 0%)" fill-opacity="1"><g transform="translate(93.450255, 308.548134)"><g><path d="M 4.953125 0.171875 C 3.816406 0.171875 2.925781 -0.132812 2.28125 -0.75 C 1.632812 -1.375 1.3125 -2.222656 1.3125 -3.296875 L 1.3125 -5.78125 C 1.3125 -6.851562 1.632812 -7.695312 2.28125 -8.3125 C 2.925781 -8.925781 3.816406 -9.234375 4.953125 -9.234375 C 6.085938 -9.234375 6.972656 -8.925781 7.609375 -8.3125 C 8.253906 -7.695312 8.578125 -6.851562 8.578125 -5.78125 L 8.578125 -4.109375 L 2.8125 -4.109375 L 2.8125 -3.375 C 2.8125 -2.6875 3 -2.144531 3.375 -1.75 C 3.75 -1.351562 4.273438 -1.15625 4.953125 -1.15625 C 5.441406 -1.15625 5.867188 -1.226562 6.234375 -1.375 C 6.597656 -1.53125 6.867188 -1.757812 7.046875 -2.0625 L 8.53125 -2.0625 C 8.34375 -1.363281 7.925781 -0.816406 7.28125 -0.421875 C 6.632812 -0.0234375 5.859375 0.171875 4.953125 0.171875 Z M 7.09375 -5.34375 L 7.09375 -5.78125 C 7.09375 -6.457031 6.90625 -6.984375 6.53125 -7.359375 C 6.15625 -7.734375 5.628906 -7.921875 4.953125 -7.921875 C 4.265625 -7.921875 3.734375 -7.734375 3.359375 -7.359375 C 2.992188 -6.984375 2.8125 -6.457031 2.8125 -5.78125 L 2.8125 -5.34375 Z M 7.09375 -5.34375 "/></g></g></g><g fill="rgb(0%, 0%, 0%)" fill-opacity="1"><g transform="translate(103.350286, 308.548134)"><g><path d="M 1.3125 -5.6875 C 1.3125 -6.238281 1.382812 -6.734375 1.53125 -7.171875 C 1.6875 -7.617188 1.894531 -7.992188 2.15625 -8.296875 C 2.425781 -8.597656 2.742188 -8.828125 3.109375 -8.984375 C 3.484375 -9.148438 3.90625 -9.234375 4.375 -9.234375 C 5.039062 -9.234375 5.59375 -9.082031 6.03125 -8.78125 C 6.476562 -8.476562 6.769531 -8.050781 6.90625 -7.5 L 7.046875 -7.5 C 7.035156 -7.6875 7.023438 -7.875 7.015625 -8.0625 C 6.992188 -8.226562 6.976562 -8.398438 6.96875 -8.578125 C 6.96875 -8.765625 6.96875 -8.929688 6.96875 -9.078125 L 6.96875 -12.046875 L 8.453125 -12.046875 L 8.453125 0 L 7.046875 0 L 7.046875 -1.5625 L 6.90625 -1.5625 C 6.769531 -1.019531 6.476562 -0.59375 6.03125 -0.28125 C 5.59375 0.0195312 5.039062 0.171875 4.375 0.171875 C 3.90625 0.171875 3.484375 0.0859375 3.109375 -0.078125 C 2.742188 -0.242188 2.425781 -0.476562 2.15625 -0.78125 C 1.894531 -1.082031 1.6875 -1.453125 1.53125 -1.890625 C 1.382812 -2.335938 1.3125 -2.832031 1.3125 -3.375 Z M 4.9375 -1.125 C 5.550781 -1.125 6.039062 -1.328125 6.40625 -1.734375 C 6.78125 -2.140625 6.96875 -2.6875 6.96875 -3.375 L 6.96875 -5.6875 C 6.96875 -6.382812 6.78125 -6.9375 6.40625 -7.34375 C 6.039062 -7.75 5.550781 -7.953125 4.9375 -7.953125 C 4.257812 -7.953125 3.734375 -7.753906 3.359375 -7.359375 C 2.992188 -6.960938 2.8125 -6.40625 2.8125 -5.6875 L 2.8125 -3.375 C 2.8125 -2.6875 3 -2.140625 3.375 -1.734375 C 3.75 -1.328125 4.269531 -1.125 4.9375 -1.125 Z M 4.9375 -1.125 "/></g></g></g><g fill="rgb(0%, 0%, 0%)" fill-opacity="1"><g transform="translate(113.250317, 308.548134)"><g><path d="M 1.5625 0 L 1.5625 -1.359375 L 4.875 -1.359375 L 4.875 -7.71875 L 1.984375 -7.71875 L 1.984375 -9.078125 L 6.359375 -9.078125 L 6.359375 -1.359375 L 9.078125 -1.359375 L 9.078125 0 Z M 5.203125 -12.625 L 5.53125 -12.625 C 5.84375 -12.625 6.097656 -12.53125 6.296875 -12.34375 C 6.492188 -12.15625 6.59375 -11.910156 6.59375 -11.609375 C 6.59375 -11.316406 6.492188 -11.082031 6.296875 -10.90625 C 6.097656 -10.726562 5.84375 -10.640625 5.53125 -10.640625 L 5.203125 -10.640625 C 4.878906 -10.640625 4.617188 -10.722656 4.421875 -10.890625 C 4.222656 -11.066406 4.125 -11.304688 4.125 -11.609375 C 4.125 -11.910156 4.222656 -12.15625 4.421875 -12.34375 C 4.617188 -12.53125 4.878906 -12.625 5.203125 -12.625 Z M 5.203125 -12.625 "/></g></g></g><g fill="rgb(0%, 0%, 0%)" fill-opacity="1"><g transform="translate(123.150349, 308.548134)"><g><path d="M 0.984375 -9.078125 L 3.625 -9.078125 L 3.625 -11.875 L 5.109375 -11.875 L 5.109375 -9.078125 L 8.65625 -9.078125 L 8.65625 -7.71875 L 5.109375 -7.71875 L 5.109375 -2.34375 C 5.109375 -2.03125 5.203125 -1.785156 5.390625 -1.609375 C 5.585938 -1.441406 5.851562 -1.359375 6.1875 -1.359375 L 8.5 -1.359375 L 8.5 0 L 6.1875 0 C 5.40625 0 4.78125 -0.210938 4.3125 -0.640625 C 3.851562 -1.066406 3.625 -1.632812 3.625 -2.34375 L 3.625 -7.71875 L 0.984375 -7.71875 Z M 0.984375 -9.078125 "/></g></g></g><g fill="rgb(0%, 0%, 0%)" fill-opacity="1"><g transform="translate(133.05038, 308.548134)"><g><path d="M 1.046875 -2.640625 C 1.046875 -3.066406 1.117188 -3.453125 1.265625 -3.796875 C 1.410156 -4.148438 1.625 -4.445312 1.90625 -4.6875 C 2.1875 -4.925781 2.523438 -5.109375 2.921875 -5.234375 C 3.316406 -5.367188 3.757812 -5.4375 4.25 -5.4375 L 6.96875 -5.4375 L 6.96875 -6.1875 C 6.96875 -6.75 6.78125 -7.1875 6.40625 -7.5 C 6.039062 -7.8125 5.507812 -7.96875 4.8125 -7.96875 C 4.3125 -7.96875 3.878906 -7.875 3.515625 -7.6875 C 3.160156 -7.5 2.925781 -7.238281 2.8125 -6.90625 L 1.3125 -6.90625 C 1.46875 -7.625 1.863281 -8.191406 2.5 -8.609375 C 3.132812 -9.023438 3.914062 -9.234375 4.84375 -9.234375 C 5.96875 -9.234375 6.847656 -8.972656 7.484375 -8.453125 C 8.128906 -7.929688 8.453125 -7.203125 8.453125 -6.265625 L 8.453125 0 L 7.09375 0 L 7.09375 -1.734375 L 6.96875 -1.734375 C 6.820312 -1.148438 6.484375 -0.6875 5.953125 -0.34375 C 5.429688 0 4.789062 0.171875 4.03125 0.171875 C 3.113281 0.171875 2.382812 -0.0820312 1.84375 -0.59375 C 1.3125 -1.101562 1.046875 -1.785156 1.046875 -2.640625 Z M 4.359375 -1.0625 C 4.734375 -1.0625 5.078125 -1.109375 5.390625 -1.203125 C 5.710938 -1.304688 5.988281 -1.445312 6.21875 -1.625 C 6.445312 -1.800781 6.628906 -2.007812 6.765625 -2.25 C 6.898438 -2.5 6.96875 -2.765625 6.96875 -3.046875 L 6.96875 -4.296875 L 4.296875 -4.296875 C 3.742188 -4.296875 3.3125 -4.148438 3 -3.859375 C 2.6875 -3.578125 2.53125 -3.179688 2.53125 -2.671875 C 2.53125 -2.160156 2.6875 -1.765625 3 -1.484375 C 3.320312 -1.203125 3.773438 -1.0625 4.359375 -1.0625 Z M 4.359375 -1.0625 "/></g></g></g><g fill="rgb(0%, 0%, 0%)" fill-opacity="1"><g transform="translate(142.950411, 308.548134)"><g><path d="M 0.984375 -9.078125 L 3.625 -9.078125 L 3.625 -11.875 L 5.109375 -11.875 L 5.109375 -9.078125 L 8.65625 -9.078125 L 8.65625 -7.71875 L 5.109375 -7.71875 L 5.109375 -2.34375 C 5.109375 -2.03125 5.203125 -1.785156 5.390625 -1.609375 C 5.585938 -1.441406 5.851562 -1.359375 6.1875 -1.359375 L 8.5 -1.359375 L 8.5 0 L 6.1875 0 C 5.40625 0 4.78125 -0.210938 4.3125 -0.640625 C 3.851562 -1.066406 3.625 -1.632812 3.625 -2.34375 L 3.625 -7.71875 L 0.984375 -7.71875 Z M 0.984375 -9.078125 "/></g></g></g><g fill="rgb(0%, 0%, 0%)" fill-opacity="1"><g transform="translate(152.850443, 308.548134)"><g><path d="M 1.5625 0 L 1.5625 -1.359375 L 4.875 -1.359375 L 4.875 -7.71875 L 1.984375 -7.71875 L 1.984375 -9.078125 L 6.359375 -9.078125 L 6.359375 -1.359375 L 9.078125 -1.359375 L 9.078125 0 Z M 5.203125 -12.625 L 5.53125 -12.625 C 5.84375 -12.625 6.097656 -12.53125 6.296875 -12.34375 C 6.492188 -12.15625 6.59375 -11.910156 6.59375 -11.609375 C 6.59375 -11.316406 6.492188 -11.082031 6.296875 -10.90625 C 6.097656 -10.726562 5.84375 -10.640625 5.53125 -10.640625 L 5.203125 -10.640625 C 4.878906 -10.640625 4.617188 -10.722656 4.421875 -10.890625 C 4.222656 -11.066406 4.125 -11.304688 4.125 -11.609375 C 4.125 -11.910156 4.222656 -12.15625 4.421875 -12.34375 C 4.617188 -12.53125 4.878906 -12.625 5.203125 -12.625 Z M 5.203125 -12.625 "/></g></g></g><g fill="rgb(0%, 0%, 0%)" fill-opacity="1"><g transform="translate(162.750474, 308.548134)"><g><path d="M 2.8125 -3.375 C 2.8125 -2.6875 3 -2.144531 3.375 -1.75 C 3.75 -1.351562 4.273438 -1.15625 4.953125 -1.15625 C 5.609375 -1.15625 6.128906 -1.351562 6.515625 -1.75 C 6.898438 -2.144531 7.09375 -2.6875 7.09375 -3.375 L 7.09375 -5.6875 C 7.09375 -6.382812 6.898438 -6.929688 6.515625 -7.328125 C 6.128906 -7.722656 5.609375 -7.921875 4.953125 -7.921875 C 4.285156 -7.921875 3.757812 -7.722656 3.375 -7.328125 C 3 -6.929688 2.8125 -6.382812 2.8125 -5.6875 Z M 1.3125 -5.6875 C 1.3125 -6.238281 1.394531 -6.734375 1.5625 -7.171875 C 1.738281 -7.609375 1.984375 -7.976562 2.296875 -8.28125 C 2.609375 -8.59375 2.988281 -8.828125 3.4375 -8.984375 C 3.882812 -9.148438 4.390625 -9.234375 4.953125 -9.234375 C 6.078125 -9.234375 6.960938 -8.921875 7.609375 -8.296875 C 8.253906 -7.671875 8.578125 -6.804688 8.578125 -5.703125 L 8.578125 -3.375 C 8.578125 -2.832031 8.492188 -2.335938 8.328125 -1.890625 C 8.160156 -1.453125 7.921875 -1.082031 7.609375 -0.78125 C 7.296875 -0.476562 6.914062 -0.242188 6.46875 -0.078125 C 6.019531 0.0859375 5.515625 0.171875 4.953125 0.171875 C 4.390625 0.171875 3.882812 0.0859375 3.4375 -0.078125 C 2.988281 -0.242188 2.609375 -0.476562 2.296875 -0.78125 C 1.984375 -1.09375 1.738281 -1.46875 1.5625 -1.90625 C 1.394531 -2.351562 1.3125 -2.84375 1.3125 -3.375 Z M 1.3125 -5.6875 "/></g></g></g><g fill="rgb(0%, 0%, 0%)" fill-opacity="1"><g transform="translate(172.650506, 308.548134)"><g><path d="M 1.453125 0 L 1.453125 -9.078125 L 2.859375 -9.078125 L 2.859375 -7.5 L 2.984375 -7.5 C 3.128906 -8.050781 3.414062 -8.476562 3.84375 -8.78125 C 4.28125 -9.082031 4.828125 -9.234375 5.484375 -9.234375 C 5.929688 -9.234375 6.335938 -9.15625 6.703125 -9 C 7.078125 -8.851562 7.390625 -8.640625 7.640625 -8.359375 C 7.898438 -8.078125 8.101562 -7.738281 8.25 -7.34375 C 8.394531 -6.957031 8.46875 -6.519531 8.46875 -6.03125 L 8.46875 0 L 6.984375 0 L 6.984375 -5.796875 C 6.984375 -6.484375 6.804688 -7.019531 6.453125 -7.40625 C 6.097656 -7.789062 5.609375 -7.984375 4.984375 -7.984375 C 4.359375 -7.984375 3.859375 -7.773438 3.484375 -7.359375 C 3.117188 -6.953125 2.9375 -6.394531 2.9375 -5.6875 L 2.9375 0 Z M 1.453125 0 "/></g></g></g><g fill="rgb(0%, 0%, 0%)" fill-opacity="1"><g transform="translate(182.550537, 308.548134)"><g/></g></g><g fill="rgb(0%, 0%, 0%)" fill-opacity="1"><g transform="translate(192.450568, 308.548134)"><g><path d="M 1.046875 -2.640625 C 1.046875 -3.066406 1.117188 -3.453125 1.265625 -3.796875 C 1.410156 -4.148438 1.625 -4.445312 1.90625 -4.6875 C 2.1875 -4.925781 2.523438 -5.109375 2.921875 -5.234375 C 3.316406 -5.367188 3.757812 -5.4375 4.25 -5.4375 L 6.96875 -5.4375 L 6.96875 -6.1875 C 6.96875 -6.75 6.78125 -7.1875 6.40625 -7.5 C 6.039062 -7.8125 5.507812 -7.96875 4.8125 -7.96875 C 4.3125 -7.96875 3.878906 -7.875 3.515625 -7.6875 C 3.160156 -7.5 2.925781 -7.238281 2.8125 -6.90625 L 1.3125 -6.90625 C 1.46875 -7.625 1.863281 -8.191406 2.5 -8.609375 C 3.132812 -9.023438 3.914062 -9.234375 4.84375 -9.234375 C 5.96875 -9.234375 6.847656 -8.972656 7.484375 -8.453125 C 8.128906 -7.929688 8.453125 -7.203125 8.453125 -6.265625 L 8.453125 0 L 7.09375 0 L 7.09375 -1.734375 L 6.96875 -1.734375 C 6.820312 -1.148438 6.484375 -0.6875 5.953125 -0.34375 C 5.429688 0 4.789062 0.171875 4.03125 0.171875 C 3.113281 0.171875 2.382812 -0.0820312 1.84375 -0.59375 C 1.3125 -1.101562 1.046875 -1.785156 1.046875 -2.640625 Z M 4.359375 -1.0625 C 4.734375 -1.0625 5.078125 -1.109375 5.390625 -1.203125 C 5.710938 -1.304688 5.988281 -1.445312 6.21875 -1.625 C 6.445312 -1.800781 6.628906 -2.007812 6.765625 -2.25 C 6.898438 -2.5 6.96875 -2.765625 6.96875 -3.046875 L 6.96875 -4.296875 L 4.296875 -4.296875 C 3.742188 -4.296875 3.3125 -4.148438 3 -3.859375 C 2.6875 -3.578125 2.53125 -3.179688 2.53125 -2.671875 C 2.53125 -2.160156 2.6875 -1.765625 3 -1.484375 C 3.320312 -1.203125 3.773438 -1.0625 4.359375 -1.0625 Z M 4.359375 -1.0625 "/></g></g></g><g fill="rgb(0%, 0%, 0%)" fill-opacity="1"><g transform="translate(202.3506, 308.548134)"><g><path d="M 1.453125 0 L 1.453125 -9.078125 L 2.859375 -9.078125 L 2.859375 -7.5 L 2.984375 -7.5 C 3.128906 -8.050781 3.414062 -8.476562 3.84375 -8.78125 C 4.28125 -9.082031 4.828125 -9.234375 5.484375 -9.234375 C 5.929688 -9.234375 6.335938 -9.15625 6.703125 -9 C 7.078125 -8.851562 7.390625 -8.640625 7.640625 -8.359375 C 7.898438 -8.078125 8.101562 -7.738281 8.25 -7.34375 C 8.394531 -6.957031 8.46875 -6.519531 8.46875 -6.03125 L 8.46875 0 L 6.984375 0 L 6.984375 -5.796875 C 6.984375 -6.484375 6.804688 -7.019531 6.453125 -7.40625 C 6.097656 -7.789062 5.609375 -7.984375 4.984375 -7.984375 C 4.359375 -7.984375 3.859375 -7.773438 3.484375 -7.359375 C 3.117188 -6.953125 2.9375 -6.394531 2.9375 -5.6875 L 2.9375 0 Z M 1.453125 0 "/></g></g></g><g fill="rgb(0%, 0%, 0%)" fill-opacity="1"><g transform="translate(212.250631, 308.548134)"><g><path d="M 1.3125 -5.6875 C 1.3125 -6.238281 1.382812 -6.734375 1.53125 -7.171875 C 1.6875 -7.617188 1.894531 -7.992188 2.15625 -8.296875 C 2.425781 -8.597656 2.742188 -8.828125 3.109375 -8.984375 C 3.484375 -9.148438 3.90625 -9.234375 4.375 -9.234375 C 5.039062 -9.234375 5.59375 -9.082031 6.03125 -8.78125 C 6.476562 -8.476562 6.769531 -8.050781 6.90625 -7.5 L 7.046875 -7.5 C 7.035156 -7.6875 7.023438 -7.875 7.015625 -8.0625 C 6.992188 -8.226562 6.976562 -8.398438 6.96875 -8.578125 C 6.96875 -8.765625 6.96875 -8.929688 6.96875 -9.078125 L 6.96875 -12.046875 L 8.453125 -12.046875 L 8.453125 0 L 7.046875 0 L 7.046875 -1.5625 L 6.90625 -1.5625 C 6.769531 -1.019531 6.476562 -0.59375 6.03125 -0.28125 C 5.59375 0.0195312 5.039062 0.171875 4.375 0.171875 C 3.90625 0.171875 3.484375 0.0859375 3.109375 -0.078125 C 2.742188 -0.242188 2.425781 -0.476562 2.15625 -0.78125 C 1.894531 -1.082031 1.6875 -1.453125 1.53125 -1.890625 C 1.382812 -2.335938 1.3125 -2.832031 1.3125 -3.375 Z M 4.9375 -1.125 C 5.550781 -1.125 6.039062 -1.328125 6.40625 -1.734375 C 6.78125 -2.140625 6.96875 -2.6875 6.96875 -3.375 L 6.96875 -5.6875 C 6.96875 -6.382812 6.78125 -6.9375 6.40625 -7.34375 C 6.039062 -7.75 5.550781 -7.953125 4.9375 -7.953125 C 4.257812 -7.953125 3.734375 -7.753906 3.359375 -7.359375 C 2.992188 -6.960938 2.8125 -6.40625 2.8125 -5.6875 L 2.8125 -3.375 C 2.8125 -2.6875 3 -2.140625 3.375 -1.734375 C 3.75 -1.328125 4.269531 -1.125 4.9375 -1.125 Z M 4.9375 -1.125 "/></g></g></g><g fill="rgb(0%, 0%, 0%)" fill-opacity="1"><g transform="translate(222.150662, 308.548134)"><g/></g></g><g fill="rgb(0%, 0%, 0%)" fill-opacity="1"><g transform="translate(232.050694, 308.548134)"><g><path d="M 1.234375 0 L 1.234375 -11.875 L 3.078125 -11.875 L 4.53125 -7.859375 C 4.59375 -7.734375 4.644531 -7.585938 4.6875 -7.421875 C 4.726562 -7.265625 4.765625 -7.125 4.796875 -7 C 4.847656 -6.832031 4.894531 -6.671875 4.9375 -6.515625 L 5.03125 -6.515625 C 5.070312 -6.671875 5.117188 -6.832031 5.171875 -7 C 5.210938 -7.125 5.253906 -7.265625 5.296875 -7.421875 C 5.347656 -7.585938 5.394531 -7.734375 5.4375 -7.859375 L 6.8125 -11.875 L 8.65625 -11.875 L 8.65625 0 L 7.296875 0 L 7.296875 -8.328125 C 7.296875 -8.503906 7.296875 -8.703125 7.296875 -8.921875 C 7.304688 -9.140625 7.320312 -9.351562 7.34375 -9.5625 C 7.351562 -9.8125 7.363281 -10.054688 7.375 -10.296875 L 7.28125 -10.296875 C 7.207031 -10.066406 7.140625 -9.84375 7.078125 -9.625 C 7.023438 -9.425781 6.960938 -9.207031 6.890625 -8.96875 C 6.816406 -8.738281 6.75 -8.523438 6.6875 -8.328125 L 5.65625 -5.28125 L 4.28125 -5.28125 L 3.25 -8.328125 C 3.1875 -8.535156 3.113281 -8.753906 3.03125 -8.984375 C 2.957031 -9.222656 2.894531 -9.441406 2.84375 -9.640625 C 2.769531 -9.867188 2.703125 -10.09375 2.640625 -10.3125 L 2.5625 -10.3125 C 2.570312 -10.070312 2.582031 -9.832031 2.59375 -9.59375 C 2.59375 -9.394531 2.59375 -9.179688 2.59375 -8.953125 C 2.601562 -8.722656 2.609375 -8.515625 2.609375 -8.328125 L 2.609375 0 Z M 1.234375 0 "/></g></g></g><g fill="rgb(0%, 0%, 0%)" fill-opacity="1"><g transform="translate(241.950725, 308.548134)"><g><path d="M 2.8125 -3.375 C 2.8125 -2.6875 3 -2.144531 3.375 -1.75 C 3.75 -1.351562 4.273438 -1.15625 4.953125 -1.15625 C 5.609375 -1.15625 6.128906 -1.351562 6.515625 -1.75 C 6.898438 -2.144531 7.09375 -2.6875 7.09375 -3.375 L 7.09375 -5.6875 C 7.09375 -6.382812 6.898438 -6.929688 6.515625 -7.328125 C 6.128906 -7.722656 5.609375 -7.921875 4.953125 -7.921875 C 4.285156 -7.921875 3.757812 -7.722656 3.375 -7.328125 C 3 -6.929688 2.8125 -6.382812 2.8125 -5.6875 Z M 1.3125 -5.6875 C 1.3125 -6.238281 1.394531 -6.734375 1.5625 -7.171875 C 1.738281 -7.609375 1.984375 -7.976562 2.296875 -8.28125 C 2.609375 -8.59375 2.988281 -8.828125 3.4375 -8.984375 C 3.882812 -9.148438 4.390625 -9.234375 4.953125 -9.234375 C 6.078125 -9.234375 6.960938 -8.921875 7.609375 -8.296875 C 8.253906 -7.671875 8.578125 -6.804688 8.578125 -5.703125 L 8.578125 -3.375 C 8.578125 -2.832031 8.492188 -2.335938 8.328125 -1.890625 C 8.160156 -1.453125 7.921875 -1.082031 7.609375 -0.78125 C 7.296875 -0.476562 6.914062 -0.242188 6.46875 -0.078125 C 6.019531 0.0859375 5.515625 0.171875 4.953125 0.171875 C 4.390625 0.171875 3.882812 0.0859375 3.4375 -0.078125 C 2.988281 -0.242188 2.609375 -0.476562 2.296875 -0.78125 C 1.984375 -1.09375 1.738281 -1.46875 1.5625 -1.90625 C 1.394531 -2.351562 1.3125 -2.84375 1.3125 -3.375 Z M 1.3125 -5.6875 "/></g></g></g><g fill="rgb(0%, 0%, 0%)" fill-opacity="1"><g transform="translate(251.850757, 308.548134)"><g><path d="M 2.8125 -3.375 C 2.8125 -2.6875 3 -2.144531 3.375 -1.75 C 3.75 -1.351562 4.273438 -1.15625 4.953125 -1.15625 C 5.609375 -1.15625 6.128906 -1.351562 6.515625 -1.75 C 6.898438 -2.144531 7.09375 -2.6875 7.09375 -3.375 L 7.09375 -5.6875 C 7.09375 -6.382812 6.898438 -6.929688 6.515625 -7.328125 C 6.128906 -7.722656 5.609375 -7.921875 4.953125 -7.921875 C 4.285156 -7.921875 3.757812 -7.722656 3.375 -7.328125 C 3 -6.929688 2.8125 -6.382812 2.8125 -5.6875 Z M 1.3125 -5.6875 C 1.3125 -6.238281 1.394531 -6.734375 1.5625 -7.171875 C 1.738281 -7.609375 1.984375 -7.976562 2.296875 -8.28125 C 2.609375 -8.59375 2.988281 -8.828125 3.4375 -8.984375 C 3.882812 -9.148438 4.390625 -9.234375 4.953125 -9.234375 C 6.078125 -9.234375 6.960938 -8.921875 7.609375 -8.296875 C 8.253906 -7.671875 8.578125 -6.804688 8.578125 -5.703125 L 8.578125 -3.375 C 8.578125 -2.832031 8.492188 -2.335938 8.328125 -1.890625 C 8.160156 -1.453125 7.921875 -1.082031 7.609375 -0.78125 C 7.296875 -0.476562 6.914062 -0.242188 6.46875 -0.078125 C 6.019531 0.0859375 5.515625 0.171875 4.953125 0.171875 C 4.390625 0.171875 3.882812 0.0859375 3.4375 -0.078125 C 2.988281 -0.242188 2.609375 -0.476562 2.296875 -0.78125 C 1.984375 -1.09375 1.738281 -1.46875 1.5625 -1.90625 C 1.394531 -2.351562 1.3125 -2.84375 1.3125 -3.375 Z M 1.3125 -5.6875 "/></g></g></g><g fill="rgb(0%, 0%, 0%)" fill-opacity="1"><g transform="translate(261.750788, 308.548134)"><g><path d="M 1.3125 -5.6875 C 1.3125 -6.238281 1.382812 -6.734375 1.53125 -7.171875 C 1.6875 -7.617188 1.894531 -7.992188 2.15625 -8.296875 C 2.425781 -8.597656 2.742188 -8.828125 3.109375 -8.984375 C 3.484375 -9.148438 3.90625 -9.234375 4.375 -9.234375 C 5.039062 -9.234375 5.59375 -9.082031 6.03125 -8.78125 C 6.476562 -8.476562 6.769531 -8.050781 6.90625 -7.5 L 7.046875 -7.5 C 7.035156 -7.6875 7.023438 -7.875 7.015625 -8.0625 C 6.992188 -8.226562 6.976562 -8.398438 6.96875 -8.578125 C 6.96875 -8.765625 6.96875 -8.929688 6.96875 -9.078125 L 6.96875 -12.046875 L 8.453125 -12.046875 L 8.453125 0 L 7.046875 0 L 7.046875 -1.5625 L 6.90625 -1.5625 C 6.769531 -1.019531 6.476562 -0.59375 6.03125 -0.28125 C 5.59375 0.0195312 5.039062 0.171875 4.375 0.171875 C 3.90625 0.171875 3.484375 0.0859375 3.109375 -0.078125 C 2.742188 -0.242188 2.425781 -0.476562 2.15625 -0.78125 C 1.894531 -1.082031 1.6875 -1.453125 1.53125 -1.890625 C 1.382812 -2.335938 1.3125 -2.832031 1.3125 -3.375 Z M 4.9375 -1.125 C 5.550781 -1.125 6.039062 -1.328125 6.40625 -1.734375 C 6.78125 -2.140625 6.96875 -2.6875 6.96875 -3.375 L 6.96875 -5.6875 C 6.96875 -6.382812 6.78125 -6.9375 6.40625 -7.34375 C 6.039062 -7.75 5.550781 -7.953125 4.9375 -7.953125 C 4.257812 -7.953125 3.734375 -7.753906 3.359375 -7.359375 C 2.992188 -6.960938 2.8125 -6.40625 2.8125 -5.6875 L 2.8125 -3.375 C 2.8125 -2.6875 3 -2.140625 3.375 -1.734375 C 3.75 -1.328125 4.269531 -1.125 4.9375 -1.125 Z M 4.9375 -1.125 "/></g></g></g><g fill="rgb(0%, 0%, 0%)" fill-opacity="1"><g transform="translate(271.650819, 308.548134)"><g/></g></g><g fill="rgb(0%, 0%, 0%)" fill-opacity="1"><g transform="translate(281.550851, 308.548134)"><g><path d="M 0.75 -11.875 L 9.15625 -11.875 L 9.15625 -10.578125 L 5.703125 -10.578125 L 5.703125 0 L 4.1875 0 L 4.1875 -10.578125 L 0.75 -10.578125 Z M 0.75 -11.875 "/></g></g></g><g fill="rgb(0%, 0%, 0%)" fill-opacity="1"><g transform="translate(291.450882, 308.548134)"><g><path d="M 1.84375 -9.078125 L 3.25 -9.078125 L 3.25 -7.5 L 3.375 -7.5 C 3.519531 -8.039062 3.816406 -8.460938 4.265625 -8.765625 C 4.722656 -9.078125 5.28125 -9.234375 5.9375 -9.234375 C 6.894531 -9.234375 7.644531 -8.929688 8.1875 -8.328125 C 8.738281 -7.734375 9.015625 -6.914062 9.015625 -5.875 L 9.015625 -5.359375 L 7.53125 -5.359375 L 7.53125 -5.6875 C 7.53125 -6.40625 7.347656 -6.957031 6.984375 -7.34375 C 6.628906 -7.738281 6.125 -7.9375 5.46875 -7.9375 C 4.8125 -7.9375 4.289062 -7.734375 3.90625 -7.328125 C 3.519531 -6.929688 3.328125 -6.382812 3.328125 -5.6875 L 3.328125 0 L 1.84375 0 Z M 1.84375 -9.078125 "/></g></g></g><g fill="rgb(0%, 0%, 0%)" fill-opacity="1"><g transform="translate(301.350913, 308.548134)"><g><path d="M 1.046875 -2.640625 C 1.046875 -3.066406 1.117188 -3.453125 1.265625 -3.796875 C 1.410156 -4.148438 1.625 -4.445312 1.90625 -4.6875 C 2.1875 -4.925781 2.523438 -5.109375 2.921875 -5.234375 C 3.316406 -5.367188 3.757812 -5.4375 4.25 -5.4375 L 6.96875 -5.4375 L 6.96875 -6.1875 C 6.96875 -6.75 6.78125 -7.1875 6.40625 -7.5 C 6.039062 -7.8125 5.507812 -7.96875 4.8125 -7.96875 C 4.3125 -7.96875 3.878906 -7.875 3.515625 -7.6875 C 3.160156 -7.5 2.925781 -7.238281 2.8125 -6.90625 L 1.3125 -6.90625 C 1.46875 -7.625 1.863281 -8.191406 2.5 -8.609375 C 3.132812 -9.023438 3.914062 -9.234375 4.84375 -9.234375 C 5.96875 -9.234375 6.847656 -8.972656 7.484375 -8.453125 C 8.128906 -7.929688 8.453125 -7.203125 8.453125 -6.265625 L 8.453125 0 L 7.09375 0 L 7.09375 -1.734375 L 6.96875 -1.734375 C 6.820312 -1.148438 6.484375 -0.6875 5.953125 -0.34375 C 5.429688 0 4.789062 0.171875 4.03125 0.171875 C 3.113281 0.171875 2.382812 -0.0820312 1.84375 -0.59375 C 1.3125 -1.101562 1.046875 -1.785156 1.046875 -2.640625 Z M 4.359375 -1.0625 C 4.734375 -1.0625 5.078125 -1.109375 5.390625 -1.203125 C 5.710938 -1.304688 5.988281 -1.445312 6.21875 -1.625 C 6.445312 -1.800781 6.628906 -2.007812 6.765625 -2.25 C 6.898438 -2.5 6.96875 -2.765625 6.96875 -3.046875 L 6.96875 -4.296875 L 4.296875 -4.296875 C 3.742188 -4.296875 3.3125 -4.148438 3 -3.859375 C 2.6875 -3.578125 2.53125 -3.179688 2.53125 -2.671875 C 2.53125 -2.160156 2.6875 -1.765625 3 -1.484375 C 3.320312 -1.203125 3.773438 -1.0625 4.359375 -1.0625 Z M 4.359375 -1.0625 "/></g></g></g><g fill="rgb(0%, 0%, 0%)" fill-opacity="1"><g transform="translate(311.250945, 308.548134)"><g><path d="M 5.078125 0.171875 C 4.515625 0.171875 4.007812 0.0859375 3.5625 -0.078125 C 3.125 -0.242188 2.75 -0.476562 2.4375 -0.78125 C 2.125 -1.09375 1.878906 -1.46875 1.703125 -1.90625 C 1.535156 -2.351562 1.453125 -2.84375 1.453125 -3.375 L 1.453125 -5.6875 C 1.453125 -6.226562 1.535156 -6.71875 1.703125 -7.15625 C 1.878906 -7.601562 2.125 -7.976562 2.4375 -8.28125 C 2.75 -8.59375 3.125 -8.828125 3.5625 -8.984375 C 4.007812 -9.148438 4.515625 -9.234375 5.078125 -9.234375 C 6.078125 -9.234375 6.898438 -8.960938 7.546875 -8.421875 C 8.191406 -7.878906 8.582031 -7.132812 8.71875 -6.1875 L 7.234375 -6.1875 C 7.148438 -6.71875 6.910156 -7.140625 6.515625 -7.453125 C 6.128906 -7.765625 5.648438 -7.921875 5.078125 -7.921875 C 4.421875 -7.921875 3.898438 -7.722656 3.515625 -7.328125 C 3.128906 -6.929688 2.9375 -6.382812 2.9375 -5.6875 L 2.9375 -3.375 C 2.9375 -2.6875 3.125 -2.144531 3.5 -1.75 C 3.882812 -1.351562 4.410156 -1.15625 5.078125 -1.15625 C 5.648438 -1.15625 6.128906 -1.3125 6.515625 -1.625 C 6.910156 -1.9375 7.148438 -2.359375 7.234375 -2.890625 L 8.71875 -2.890625 C 8.570312 -1.929688 8.175781 -1.179688 7.53125 -0.640625 C 6.882812 -0.0976562 6.066406 0.171875 5.078125 0.171875 Z M 5.078125 0.171875 "/></g></g></g><g fill="rgb(0%, 0%, 0%)" fill-opacity="1"><g transform="translate(321.150976, 308.548134)"><g><path d="M 3.015625 -12.046875 L 3.015625 -5.28125 L 4.796875 -5.28125 L 7.578125 -9.078125 L 9.265625 -9.078125 L 6.0625 -4.6875 L 9.328125 0 L 7.59375 0 L 4.8125 -3.953125 L 3.015625 -3.953125 L 3.015625 0 L 1.53125 0 L 1.53125 -12.046875 Z M 3.015625 -12.046875 "/></g></g></g><g fill="rgb(0%, 0%, 0%)" fill-opacity="1"><g transform="translate(331.051008, 308.548134)"><g><path d="M 1.5625 0 L 1.5625 -1.359375 L 4.875 -1.359375 L 4.875 -7.71875 L 1.984375 -7.71875 L 1.984375 -9.078125 L 6.359375 -9.078125 L 6.359375 -1.359375 L 9.078125 -1.359375 L 9.078125 0 Z M 5.203125 -12.625 L 5.53125 -12.625 C 5.84375 -12.625 6.097656 -12.53125 6.296875 -12.34375 C 6.492188 -12.15625 6.59375 -11.910156 6.59375 -11.609375 C 6.59375 -11.316406 6.492188 -11.082031 6.296875 -10.90625 C 6.097656 -10.726562 5.84375 -10.640625 5.53125 -10.640625 L 5.203125 -10.640625 C 4.878906 -10.640625 4.617188 -10.722656 4.421875 -10.890625 C 4.222656 -11.066406 4.125 -11.304688 4.125 -11.609375 C 4.125 -11.910156 4.222656 -12.15625 4.421875 -12.34375 C 4.617188 -12.53125 4.878906 -12.625 5.203125 -12.625 Z M 5.203125 -12.625 "/></g></g></g><g fill="rgb(0%, 0%, 0%)" fill-opacity="1"><g transform="translate(340.951039, 308.548134)"><g><path d="M 1.453125 0 L 1.453125 -9.078125 L 2.859375 -9.078125 L 2.859375 -7.5 L 2.984375 -7.5 C 3.128906 -8.050781 3.414062 -8.476562 3.84375 -8.78125 C 4.28125 -9.082031 4.828125 -9.234375 5.484375 -9.234375 C 5.929688 -9.234375 6.335938 -9.15625 6.703125 -9 C 7.078125 -8.851562 7.390625 -8.640625 7.640625 -8.359375 C 7.898438 -8.078125 8.101562 -7.738281 8.25 -7.34375 C 8.394531 -6.957031 8.46875 -6.519531 8.46875 -6.03125 L 8.46875 0 L 6.984375 0 L 6.984375 -5.796875 C 6.984375 -6.484375 6.804688 -7.019531 6.453125 -7.40625 C 6.097656 -7.789062 5.609375 -7.984375 4.984375 -7.984375 C 4.359375 -7.984375 3.859375 -7.773438 3.484375 -7.359375 C 3.117188 -6.953125 2.9375 -6.394531 2.9375 -5.6875 L 2.9375 0 Z M 1.453125 0 "/></g></g></g><g fill="rgb(0%, 0%, 0%)" fill-opacity="1"><g transform="translate(350.85107, 308.548134)"><g><path d="M 1.203125 -5.78125 C 1.203125 -6.300781 1.273438 -6.773438 1.421875 -7.203125 C 1.566406 -7.640625 1.769531 -8.003906 2.03125 -8.296875 C 2.300781 -8.597656 2.628906 -8.828125 3.015625 -8.984375 C 3.398438 -9.148438 3.832031 -9.234375 4.3125 -9.234375 C 4.96875 -9.234375 5.523438 -9.078125 5.984375 -8.765625 C 6.453125 -8.453125 6.769531 -8.003906 6.9375 -7.421875 L 7.046875 -7.421875 L 7.046875 -9.078125 L 8.453125 -9.078125 L 8.453125 -0.65625 C 8.453125 0.40625 8.132812 1.234375 7.5 1.828125 C 6.875 2.421875 6 2.71875 4.875 2.71875 L 2.640625 2.71875 L 2.640625 1.375 L 4.875 1.375 C 5.53125 1.375 6.039062 1.195312 6.40625 0.84375 C 6.78125 0.488281 6.96875 -0.0078125 6.96875 -0.65625 L 6.96875 -0.984375 L 7.03125 -2.640625 L 6.9375 -2.640625 C 6.769531 -2.054688 6.453125 -1.609375 5.984375 -1.296875 C 5.523438 -0.984375 4.96875 -0.828125 4.3125 -0.828125 C 3.832031 -0.828125 3.398438 -0.90625 3.015625 -1.0625 C 2.640625 -1.226562 2.316406 -1.460938 2.046875 -1.765625 C 1.785156 -2.066406 1.578125 -2.429688 1.421875 -2.859375 C 1.273438 -3.285156 1.203125 -3.765625 1.203125 -4.296875 Z M 2.71875 -4.296875 C 2.71875 -3.609375 2.90625 -3.070312 3.28125 -2.6875 C 3.664062 -2.300781 4.1875 -2.109375 4.84375 -2.109375 C 5.507812 -2.109375 6.03125 -2.300781 6.40625 -2.6875 C 6.78125 -3.070312 6.96875 -3.609375 6.96875 -4.296875 L 6.96875 -5.78125 C 6.96875 -6.457031 6.78125 -6.988281 6.40625 -7.375 C 6.03125 -7.757812 5.507812 -7.953125 4.84375 -7.953125 C 4.1875 -7.953125 3.664062 -7.757812 3.28125 -7.375 C 2.90625 -6.988281 2.71875 -6.457031 2.71875 -5.78125 Z M 2.71875 -4.296875 "/></g></g></g></svg>