<svg xmlns="http://www.w3.org/2000/svg" xmlns:xlink="http://www.w3.org/1999/xlink" width="500" zoomAndPan="magnify" viewBox="0 0 375 374.999991" height="500" preserveAspectRatio="xMidYMid meet" version="1.0"><defs><g/><clipPath id="id1"><path d="M 190.195312 139 L 304 139 L 304 167 L 190.195312 167 Z M 190.195312 139 " clip-rule="nonzero"/></clipPath><clipPath id="id2"><path d="M 260 122.140625 L 340 122.140625 L 340 157 L 260 157 Z M 260 122.140625 " clip-rule="nonzero"/></clipPath><clipPath id="id3"><path d="M 40.195312 122.140625 L 120 122.140625 L 120 157 L 40.195312 157 Z M 40.195312 122.140625 " clip-rule="nonzero"/></clipPath></defs><g clip-path="url(#id1)"><path fill="rgb(0%, 76.078796%, 79.60968%)" d="M 190.476562 141.769531 C 223.433594 130.601562 248.230469 157.914062 275.304688 160.210938 C 285.328125 161.113281 294.09375 158.972656 303.648438 156.195312 C 286.683594 168.714844 269.71875 168.800781 252.203125 162.285156 C 231.195312 154.207031 219.503906 142.503906 190.476562 141.769531 Z M 190.476562 141.769531 " fill-opacity="1" fill-rule="nonzero"/></g><g clip-path="url(#id2)"><path fill="rgb(0%, 76.078796%, 79.60968%)" d="M 260.402344 150.582031 C 287.746094 149.878906 313.730469 151.046875 332.660156 130.984375 C 336.902344 126.5 339.050781 122.71875 339.910156 122.140625 C 339.613281 122.550781 339.386719 124.722656 338.3125 127.78125 C 328.363281 156.828125 289.441406 163.132812 260.402344 150.582031 Z M 260.402344 150.582031 " fill-opacity="1" fill-rule="nonzero"/></g><path fill="rgb(0%, 76.078796%, 79.60968%)" d="M 205.449219 134.566406 C 221.582031 128.347656 237.03125 128.417969 251.511719 131.433594 C 273.453125 136.285156 278.371094 142.433594 307.933594 142.050781 C 288.027344 150.765625 270.511719 144.703125 255.820312 140.839844 C 232.367188 134.28125 221.664062 135.070312 205.449219 134.566406 Z M 205.449219 134.566406 " fill-opacity="1" fill-rule="nonzero"/><path fill="rgb(0%, 76.078796%, 79.60968%)" d="M 233.824219 160.675781 C 277.351562 173.210938 307.496094 180.855469 330.808594 142.417969 C 324.910156 179.953125 277.410156 192.640625 233.824219 160.675781 Z M 233.824219 160.675781 " fill-opacity="1" fill-rule="nonzero"/><path fill="rgb(0%, 76.078796%, 79.60968%)" d="M 189.910156 141.769531 C 156.957031 130.601562 132.160156 157.914062 105.085938 160.210938 C 95.0625 161.113281 86.296875 158.972656 76.742188 156.195312 C 93.707031 168.714844 110.671875 168.800781 128.1875 162.285156 C 149.195312 154.207031 160.886719 142.503906 189.910156 141.769531 Z M 189.910156 141.769531 " fill-opacity="1" fill-rule="nonzero"/><g clip-path="url(#id3)"><path fill="rgb(0%, 76.078796%, 79.60968%)" d="M 119.988281 150.582031 C 92.644531 149.878906 66.660156 151.046875 47.730469 130.984375 C 43.488281 126.5 41.339844 122.71875 40.476562 122.140625 C 40.773438 122.550781 41 124.722656 42.074219 127.78125 C 52.027344 156.828125 90.949219 163.132812 119.988281 150.582031 Z M 119.988281 150.582031 " fill-opacity="1" fill-rule="nonzero"/></g><path fill="rgb(0%, 76.078796%, 79.60968%)" d="M 174.941406 134.566406 C 158.808594 128.347656 143.355469 128.417969 128.878906 131.433594 C 106.9375 136.285156 102.019531 142.433594 72.457031 142.050781 C 92.363281 150.765625 109.878906 144.703125 124.566406 140.839844 C 148.023438 134.28125 158.722656 135.070312 174.941406 134.566406 Z M 174.941406 134.566406 " fill-opacity="1" fill-rule="nonzero"/><path fill="rgb(0%, 76.078796%, 79.60968%)" d="M 146.566406 160.675781 C 103.035156 173.210938 72.894531 180.855469 49.582031 142.417969 C 55.476562 179.953125 102.980469 192.640625 146.566406 160.675781 Z M 146.566406 160.675781 " fill-opacity="1" fill-rule="nonzero"/><g fill="rgb(0%, 0%, 0%)" fill-opacity="1"><g transform="translate(121.235146, 225.260126)"><g><path d="M 30.273438 -12.921875 C 30.089844 -13.042969 29.78125 -12.859375 29.71875 -12.613281 C 29.105469 -10.335938 27.441406 -5.785156 25.351562 -2.890625 C 25.105469 -2.585938 24.179688 -1.601562 23.257812 -1.847656 C 23.074219 -1.847656 22.949219 -2.03125 22.765625 -2.277344 C 20.796875 -5.722656 22.457031 -23.011719 28.734375 -45.964844 C 29.042969 -47.195312 28.550781 -48.484375 27.441406 -49.164062 L 26.519531 -49.714844 C 26.027344 -49.960938 25.535156 -50.023438 25.042969 -49.839844 C 24.550781 -49.59375 24.179688 -49.164062 24.058594 -48.671875 C 22.890625 -43.625 21.71875 -38.394531 20.734375 -33.410156 C 18.027344 -25.164062 13.96875 -13.230469 10.03125 -7.074219 L 10.03125 -7.015625 C 9.96875 -7.015625 8.613281 -5.167969 6.953125 -5.351562 C 6.644531 -5.351562 6.398438 -5.539062 6.152344 -5.90625 C 4.183594 -8.675781 4.183594 -19.566406 7.875 -35.011719 C 8.183594 -36.242188 7.628906 -37.535156 6.523438 -38.148438 L 5.351562 -38.824219 C 4.921875 -39.070312 4.492188 -39.070312 4.0625 -38.886719 C 3.628906 -38.703125 3.324219 -38.332031 3.261719 -37.902344 C 0.984375 -28.488281 -0.125 -20.121094 0 -13.84375 C 0.125 -7.261719 1.722656 -3.261719 4.554688 -2.339844 C 4.859375 -2.214844 5.105469 -2.152344 5.414062 -2.152344 C 7.136719 -2.152344 8.921875 -3.753906 10.644531 -6.398438 C 10.707031 -6.460938 10.707031 -6.523438 10.769531 -6.523438 C 10.769531 -6.523438 10.769531 -6.582031 10.828125 -6.582031 C 13.722656 -11.074219 16.613281 -18.519531 19.445312 -26.765625 C 17.289062 -14.707031 16.304688 -4.554688 18.765625 -0.863281 C 19.320312 0 20.058594 0.492188 20.921875 0.675781 C 21.167969 0.738281 21.351562 0.738281 21.597656 0.738281 C 23.257812 0.738281 24.796875 -0.554688 26.089844 -2.339844 L 26.148438 -2.398438 C 26.210938 -2.460938 26.210938 -2.523438 26.210938 -2.523438 C 28.859375 -6.277344 30.519531 -12 30.640625 -12.367188 C 30.703125 -12.613281 30.519531 -12.859375 30.273438 -12.921875 Z M 30.273438 -12.921875 "/></g></g></g><g fill="rgb(0%, 0%, 0%)" fill-opacity="1"><g transform="translate(150.827918, 225.260126)"><g><path d="M 21.167969 -12.738281 C 20.921875 -12.796875 20.675781 -12.675781 20.550781 -12.492188 C 19.136719 -8.367188 16.675781 -4.308594 15.199219 -3.136719 C 15.136719 -3.078125 15.136719 -3.078125 15.074219 -3.078125 C 14.890625 -2.890625 14.707031 -2.832031 14.519531 -2.832031 C 14.460938 -2.769531 14.273438 -2.769531 14.089844 -3.136719 C 13.230469 -4.554688 15.074219 -11.136719 16.304688 -15.503906 C 17.226562 -18.582031 17.71875 -20.429688 17.660156 -21.105469 C 17.472656 -23.074219 16.242188 -25.164062 14.398438 -25.164062 C 13.230469 -25.164062 11.875 -24.367188 10.398438 -22.890625 C 7.753906 -20.183594 5.167969 -15.691406 3.816406 -12.367188 C 3.875 -15.382812 4.0625 -18.460938 4.492188 -20.613281 C 4.738281 -21.535156 4.308594 -22.519531 3.507812 -23.011719 L 2.398438 -23.6875 C 2.09375 -23.875 1.785156 -23.875 1.476562 -23.75 C 1.167969 -23.628906 0.984375 -23.382812 0.863281 -23.074219 C -0.125 -18.953125 -0.429688 -9.96875 0.738281 -4.675781 C 0.984375 -3.691406 1.785156 -3.015625 2.769531 -2.953125 L 3.136719 -2.890625 L 3.199219 -2.890625 C 3.507812 -2.890625 3.753906 -3.015625 3.9375 -3.261719 C 4.183594 -3.445312 4.308594 -3.753906 4.246094 -4.0625 C 4.0625 -5.230469 3.9375 -7.015625 3.875 -8.984375 C 3.875 -11.199219 7.320312 -18.460938 11.074219 -22.210938 C 11.628906 -22.828125 12.183594 -23.257812 12.675781 -23.628906 C 13.042969 -23.8125 13.660156 -23.933594 13.90625 -23.75 C 14.152344 -23.503906 14.152344 -22.890625 13.90625 -22.089844 L 13.351562 -20.242188 C 12.121094 -16.367188 9.84375 -9.105469 9.785156 -4.984375 C 9.785156 -3.078125 10.089844 -2.03125 11.753906 -1.414062 C 12.304688 -1.230469 12.796875 -1.109375 13.230469 -1.109375 C 14.460938 -1.109375 15.199219 -1.847656 15.628906 -2.339844 L 15.75 -2.398438 C 17.78125 -4 20.242188 -8.796875 21.414062 -12.183594 C 21.535156 -12.367188 21.414062 -12.675781 21.167969 -12.738281 Z M 21.167969 -12.738281 "/></g></g></g><g fill="rgb(0%, 0%, 0%)" fill-opacity="1"><g transform="translate(171.315221, 225.260126)"><g><path d="M 24.488281 -12.304688 C 24.488281 -12.550781 24.304688 -12.738281 24.058594 -12.738281 C 21.84375 -12.738281 20.429688 -15.320312 20.121094 -16.488281 C 20.058594 -16.675781 19.875 -16.796875 19.691406 -16.796875 C 19.445312 -16.796875 19.257812 -16.613281 19.257812 -16.367188 C 19.074219 -13.96875 18.460938 -10.644531 17.472656 -8.429688 C 17.351562 -8.183594 16.921875 -7.628906 16.304688 -7.628906 C 15.996094 -7.628906 15.75 -7.753906 15.503906 -8 C 14.273438 -9.476562 14.953125 -14.707031 15.320312 -17.535156 C 15.503906 -18.644531 14.828125 -19.566406 13.78125 -19.8125 L 13.167969 -19.9375 C 12.859375 -19.996094 12.492188 -19.9375 12.246094 -19.75 C 11.9375 -19.566406 11.753906 -19.257812 11.691406 -18.953125 C 11.566406 -18.519531 11.320312 -16.980469 11.199219 -15.074219 C 10.523438 -12.183594 9.167969 -6.644531 7.320312 -3.382812 L 7.199219 -3.261719 C 7.199219 -3.199219 6.707031 -2.09375 5.84375 -2.214844 C 5.722656 -2.277344 5.597656 -2.398438 5.476562 -2.585938 C 4.246094 -4.492188 4.0625 -13.042969 6.523438 -21.535156 C 6.890625 -22.644531 6.460938 -23.875 5.539062 -24.488281 L 4.675781 -25.105469 C 4.308594 -25.410156 3.875 -25.472656 3.445312 -25.351562 C 3.078125 -25.226562 2.707031 -24.917969 2.585938 -24.488281 C 1.109375 -20.675781 0.0625 -15.136719 -0.125 -10.460938 C -0.246094 -6.335938 0.246094 -1.230469 3.261719 0.0625 C 3.628906 0.183594 3.9375 0.308594 4.308594 0.308594 C 4.738281 0.308594 5.105469 0.183594 5.539062 -0.0625 C 6.335938 -0.492188 7.015625 -1.230469 7.691406 -2.277344 C 7.875 -2.585938 8 -2.832031 8.058594 -2.832031 L 8.058594 -2.890625 C 9.351562 -5.230469 10.398438 -8.367188 11.136719 -11.136719 C 11.320312 -9.230469 11.753906 -7.382812 12.675781 -6.214844 C 13.351562 -5.476562 14.152344 -5.046875 15.136719 -5.046875 C 18.273438 -5.046875 19.503906 -11.382812 19.9375 -14.582031 C 20.734375 -13.289062 22.152344 -11.875 24.058594 -11.875 C 24.304688 -11.875 24.488281 -12.058594 24.488281 -12.304688 Z M 24.488281 -12.304688 "/></g></g></g><g fill="rgb(0%, 0%, 0%)" fill-opacity="1"><g transform="translate(195.370884, 225.260126)"><g><path d="M 1.539062 -1.476562 C 1.847656 -1.414062 2.152344 -1.355469 2.460938 -1.355469 C 4.308594 -1.355469 6.335938 -2.953125 8.613281 -6.214844 C 10.523438 -8.984375 11.9375 -11.9375 11.9375 -11.9375 C 12.058594 -12.183594 11.9375 -12.429688 11.691406 -12.550781 C 11.507812 -12.675781 11.199219 -12.550781 11.136719 -12.367188 C 10.03125 -9.96875 7.136719 -4.859375 4.429688 -2.953125 L 4.367188 -2.953125 C 4.121094 -2.769531 4.0625 -2.832031 4 -2.890625 C 3.570312 -3.136719 3.015625 -4.554688 3.261719 -7.445312 C 3.628906 -11.136719 5.167969 -15.75 6.460938 -18.828125 C 6.890625 -19.8125 6.523438 -20.980469 5.597656 -21.597656 L 4.613281 -22.210938 C 4.246094 -22.457031 3.875 -22.457031 3.507812 -22.398438 C 3.136719 -22.273438 2.832031 -21.964844 2.707031 -21.597656 C 1.292969 -18.335938 -2.03125 -7.320312 -0.125 -3.078125 C 0.246094 -2.277344 0.800781 -1.722656 1.539062 -1.476562 Z M 6.644531 -23.8125 C 6.953125 -23.6875 7.199219 -23.6875 7.445312 -23.6875 C 7.9375 -23.6875 8.550781 -23.996094 8.738281 -24.367188 L 10.152344 -26.765625 C 10.523438 -27.566406 10.582031 -28.242188 10.398438 -28.980469 C 10.089844 -29.71875 9.476562 -30.335938 8.738281 -30.703125 L 8.550781 -30.765625 C 7.753906 -31.132812 6.890625 -30.828125 6.523438 -30.148438 L 4.984375 -26.828125 C 4.554688 -25.84375 4.921875 -24.734375 5.90625 -24.242188 Z M 6.644531 -23.8125 "/></g></g></g><g fill="rgb(0%, 0%, 0%)" fill-opacity="1"><g transform="translate(206.445102, 225.260126)"><g><path d="M 21.167969 -12.738281 C 20.921875 -12.796875 20.675781 -12.675781 20.550781 -12.492188 C 19.136719 -8.367188 16.675781 -4.308594 15.199219 -3.136719 C 15.136719 -3.078125 15.136719 -3.078125 15.074219 -3.078125 C 14.890625 -2.890625 14.707031 -2.832031 14.519531 -2.832031 C 14.460938 -2.769531 14.273438 -2.769531 14.089844 -3.136719 C 13.230469 -4.554688 15.074219 -11.136719 16.304688 -15.503906 C 17.226562 -18.582031 17.71875 -20.429688 17.660156 -21.105469 C 17.472656 -23.074219 16.242188 -25.164062 14.398438 -25.164062 C 13.230469 -25.164062 11.875 -24.367188 10.398438 -22.890625 C 7.753906 -20.183594 5.167969 -15.691406 3.816406 -12.367188 C 3.875 -15.382812 4.0625 -18.460938 4.492188 -20.613281 C 4.738281 -21.535156 4.308594 -22.519531 3.507812 -23.011719 L 2.398438 -23.6875 C 2.09375 -23.875 1.785156 -23.875 1.476562 -23.75 C 1.167969 -23.628906 0.984375 -23.382812 0.863281 -23.074219 C -0.125 -18.953125 -0.429688 -9.96875 0.738281 -4.675781 C 0.984375 -3.691406 1.785156 -3.015625 2.769531 -2.953125 L 3.136719 -2.890625 L 3.199219 -2.890625 C 3.507812 -2.890625 3.753906 -3.015625 3.9375 -3.261719 C 4.183594 -3.445312 4.308594 -3.753906 4.246094 -4.0625 C 4.0625 -5.230469 3.9375 -7.015625 3.875 -8.984375 C 3.875 -11.199219 7.320312 -18.460938 11.074219 -22.210938 C 11.628906 -22.828125 12.183594 -23.257812 12.675781 -23.628906 C 13.042969 -23.8125 13.660156 -23.933594 13.90625 -23.75 C 14.152344 -23.503906 14.152344 -22.890625 13.90625 -22.089844 L 13.351562 -20.242188 C 12.121094 -16.367188 9.84375 -9.105469 9.785156 -4.984375 C 9.785156 -3.078125 10.089844 -2.03125 11.753906 -1.414062 C 12.304688 -1.230469 12.796875 -1.109375 13.230469 -1.109375 C 14.460938 -1.109375 15.199219 -1.847656 15.628906 -2.339844 L 15.75 -2.398438 C 17.78125 -4 20.242188 -8.796875 21.414062 -12.183594 C 21.535156 -12.367188 21.414062 -12.675781 21.167969 -12.738281 Z M 21.167969 -12.738281 "/></g></g></g><g fill="rgb(0%, 0%, 0%)" fill-opacity="1"><g transform="translate(226.932405, 225.260126)"><g><path d="M 27.566406 -12.738281 C 27.378906 -12.859375 27.074219 -12.738281 26.949219 -12.550781 C 25.472656 -9.785156 21.535156 -3.628906 18.398438 -1.355469 C 18.398438 -1.292969 18.335938 -1.292969 18.335938 -1.292969 C 18.027344 -1.109375 17.597656 -0.921875 17.167969 -1.230469 C 16.675781 -1.601562 14.582031 -3.9375 17.351562 -16.921875 C 24.734375 -24.367188 33.101562 -39.378906 31.996094 -45.410156 C 31.8125 -46.578125 31.195312 -47.378906 30.335938 -47.808594 C 29.042969 -48.300781 27.75 -48.238281 26.335938 -47.5625 C 21.535156 -45.101562 16.734375 -35.441406 13.722656 -22.335938 L 13.535156 -21.597656 C 13.167969 -22.210938 12.738281 -22.765625 12.121094 -23.136719 C 11.074219 -23.8125 9.785156 -23.875 8.367188 -23.320312 C 4.984375 -22.089844 -0.125 -16.859375 -0.308594 -9.539062 C -0.371094 -6.460938 0.800781 -5.105469 1.847656 -4.492188 C 2.523438 -4.121094 3.324219 -3.9375 4.121094 -3.9375 C 5.167969 -3.9375 6.277344 -4.246094 7.074219 -4.738281 C 9.105469 -5.96875 10.460938 -7.753906 11.628906 -9.785156 C 11.320312 -5.660156 11.753906 -2.953125 12.859375 -1.355469 C 13.597656 -0.308594 14.644531 0.308594 15.996094 0.429688 C 16.058594 0.492188 16.183594 0.492188 16.304688 0.492188 C 16.980469 0.492188 17.84375 0.183594 18.707031 -0.429688 C 18.765625 -0.492188 18.828125 -0.492188 18.828125 -0.554688 C 18.890625 -0.554688 18.890625 -0.554688 18.890625 -0.617188 C 20.304688 -1.601562 21.90625 -3.324219 23.628906 -5.722656 C 25.964844 -8.859375 27.75 -12.058594 27.75 -12.121094 C 27.875 -12.304688 27.8125 -12.613281 27.566406 -12.738281 Z M 19.136719 -24.304688 C 23.503906 -40.488281 27.011719 -44.363281 28.734375 -45.285156 C 29.289062 -45.59375 29.71875 -45.65625 30.148438 -45.46875 C 31.011719 -45.222656 31.132812 -43.871094 31.195312 -43.625 C 30.703125 -37.71875 24.367188 -25.84375 17.71875 -18.644531 Z M 11.8125 -12.121094 C 10.460938 -9.414062 9.042969 -7.015625 6.644531 -5.539062 C 6.214844 -5.351562 5.597656 -5.230469 5.105469 -5.722656 C 4.0625 -6.707031 3.753906 -9.351562 5.351562 -13.230469 C 7.8125 -19.320312 11.753906 -20.980469 12.183594 -20.980469 C 12.738281 -20.980469 12.921875 -20.675781 13.042969 -20.488281 C 13.105469 -20.304688 13.167969 -20.121094 13.167969 -19.996094 C 12.550781 -16.980469 12.121094 -14.398438 11.8125 -12.121094 Z M 11.8125 -12.121094 "/></g></g></g></svg>