<svg xmlns="http://www.w3.org/2000/svg" xmlns:xlink="http://www.w3.org/1999/xlink" width="500" zoomAndPan="magnify" viewBox="0 0 375 374.999991" height="500" preserveAspectRatio="xMidYMid meet" version="1.0"><defs><g><g id="id1"/></g><clipPath id="id2"><path d="M 268 160 L 287 160 L 287 188 L 268 188 Z M 268 160 " clip-rule="nonzero"/></clipPath><clipPath id="id3"><path d="M 283.65625 160.28125 L 295.222656 178.699219 L 273.625 192.257812 L 262.0625 173.835938 Z M 283.65625 160.28125 " clip-rule="nonzero"/></clipPath><clipPath id="id4"><path d="M 283.65625 160.28125 L 295.222656 178.699219 L 273.625 192.257812 L 262.0625 173.835938 Z M 283.65625 160.28125 " clip-rule="nonzero"/></clipPath><clipPath id="id5"><path d="M 293 159 L 304 159 L 304 178 L 293 178 Z M 293 159 " clip-rule="nonzero"/></clipPath><clipPath id="id6"><path d="M 299.050781 159.414062 L 309.3125 168.183594 L 298.589844 180.726562 L 288.328125 171.957031 Z M 299.050781 159.414062 " clip-rule="nonzero"/></clipPath><clipPath id="id7"><path d="M 299.050781 159.414062 L 309.3125 168.183594 L 298.589844 180.726562 L 288.328125 171.957031 Z M 299.050781 159.414062 " clip-rule="nonzero"/></clipPath><clipPath id="id8"><path d="M 294 148 L 308 148 L 308 156 L 294 156 Z M 294 148 " clip-rule="nonzero"/></clipPath><clipPath id="id9"><path d="M 293.855469 153.277344 L 299.160156 144.214844 L 309.515625 150.277344 L 304.214844 159.339844 Z M 293.855469 153.277344 " clip-rule="nonzero"/></clipPath><clipPath id="id10"><path d="M 293.855469 153.277344 L 299.160156 144.214844 L 309.515625 150.277344 L 304.214844 159.339844 Z M 293.855469 153.277344 " clip-rule="nonzero"/></clipPath><clipPath id="id11"><path d="M 314 138 L 325 138 L 325 157 L 314 157 Z M 314 138 " clip-rule="nonzero"/></clipPath><clipPath id="id12"><path d="M 318.246094 138.316406 L 329.632812 145.566406 L 320.769531 159.484375 L 309.382812 152.234375 Z M 318.246094 138.316406 " clip-rule="nonzero"/></clipPath><clipPath id="id13"><path d="M 318.246094 138.316406 L 329.632812 145.566406 L 320.769531 159.484375 L 309.382812 152.234375 Z M 318.246094 138.316406 " clip-rule="nonzero"/></clipPath><clipPath id="id14"><path d="M 321 126 L 335 126 L 335 135 L 321 135 Z M 321 126 " clip-rule="nonzero"/></clipPath><clipPath id="id15"><path d="M 335.125 128.796875 L 329.984375 137.949219 L 319.523438 132.074219 L 324.664062 122.917969 Z M 335.125 128.796875 " clip-rule="nonzero"/></clipPath><clipPath id="id16"><path d="M 335.125 128.796875 L 329.984375 137.949219 L 319.523438 132.074219 L 324.664062 122.917969 Z M 335.125 128.796875 " clip-rule="nonzero"/></clipPath><clipPath id="id17"><path d="M 304 125 L 315 125 L 315 144 L 304 144 Z M 304 125 " clip-rule="nonzero"/></clipPath><clipPath id="id18"><path d="M 311 144.183594 L 299.488281 137.132812 L 308.101562 123.0625 L 319.617188 130.113281 Z M 311 144.183594 " clip-rule="nonzero"/></clipPath><clipPath id="id19"><path d="M 311 144.183594 L 299.488281 137.132812 L 308.101562 123.0625 L 319.617188 130.113281 Z M 311 144.183594 " clip-rule="nonzero"/></clipPath></defs><g fill="rgb(0%, 0%, 0%)" fill-opacity="1"><g transform="translate(79.425586, 205.891818)"><g><path d="M 43.667969 -18.640625 C 43.402344 -18.816406 42.957031 -18.550781 42.871094 -18.195312 C 41.980469 -14.910156 39.585938 -8.34375 36.566406 -4.171875 C 36.210938 -3.726562 34.882812 -2.308594 33.550781 -2.664062 C 33.285156 -2.664062 33.105469 -2.929688 32.839844 -3.285156 C 30 -8.253906 32.394531 -33.195312 41.449219 -66.300781 C 41.894531 -68.078125 41.183594 -69.941406 39.585938 -70.917969 L 38.253906 -71.714844 C 37.542969 -72.070312 36.835938 -72.160156 36.125 -71.894531 C 35.414062 -71.539062 34.882812 -70.917969 34.703125 -70.207031 C 33.015625 -62.929688 31.332031 -55.382812 29.910156 -48.195312 C 26.003906 -36.300781 20.148438 -19.082031 14.46875 -10.207031 L 14.46875 -10.117188 C 14.378906 -10.117188 12.425781 -7.457031 10.03125 -7.722656 C 9.585938 -7.722656 9.230469 -7.988281 8.875 -8.519531 C 6.035156 -12.515625 6.035156 -28.226562 11.359375 -50.503906 C 11.804688 -52.277344 11.003906 -54.140625 9.410156 -55.027344 L 7.722656 -56.003906 C 7.101562 -56.359375 6.480469 -56.359375 5.859375 -56.09375 C 5.238281 -55.828125 4.792969 -55.296875 4.703125 -54.675781 C 1.421875 -41.09375 -0.175781 -29.023438 0 -19.96875 C 0.175781 -10.472656 2.484375 -4.703125 6.566406 -3.371094 C 7.011719 -3.195312 7.367188 -3.105469 7.8125 -3.105469 C 10.296875 -3.105469 12.871094 -5.414062 15.355469 -9.230469 C 15.445312 -9.320312 15.445312 -9.410156 15.53125 -9.410156 C 15.53125 -9.410156 15.53125 -9.496094 15.621094 -9.496094 C 19.792969 -15.976562 23.964844 -26.714844 28.046875 -38.609375 C 24.941406 -21.210938 23.519531 -6.566406 27.070312 -1.242188 C 27.871094 0 28.933594 0.710938 30.175781 0.976562 C 30.53125 1.066406 30.796875 1.066406 31.152344 1.066406 C 33.550781 1.066406 35.769531 -0.796875 37.632812 -3.371094 L 37.722656 -3.460938 C 37.808594 -3.550781 37.808594 -3.640625 37.808594 -3.640625 C 41.628906 -9.054688 44.023438 -17.308594 44.199219 -17.839844 C 44.289062 -18.195312 44.023438 -18.550781 43.667969 -18.640625 Z M 43.667969 -18.640625 "/></g></g></g><g fill="rgb(0%, 0%, 0%)" fill-opacity="1"><g transform="translate(122.113072, 205.891818)"><g><path d="M 30.53125 -18.371094 C 30.175781 -18.460938 29.824219 -18.285156 29.644531 -18.019531 C 27.601562 -12.070312 24.054688 -6.214844 21.921875 -4.527344 C 21.835938 -4.4375 21.835938 -4.4375 21.746094 -4.4375 C 21.480469 -4.171875 21.210938 -4.082031 20.945312 -4.082031 C 20.859375 -3.992188 20.589844 -3.992188 20.324219 -4.527344 C 19.082031 -6.566406 21.746094 -16.066406 23.519531 -22.367188 C 24.851562 -26.804688 25.5625 -29.46875 25.472656 -30.445312 C 25.207031 -33.285156 23.433594 -36.300781 20.769531 -36.300781 C 19.082031 -36.300781 17.128906 -35.148438 15 -33.015625 C 11.183594 -29.113281 7.457031 -22.632812 5.503906 -17.839844 C 5.589844 -22.1875 5.859375 -26.628906 6.480469 -29.734375 C 6.835938 -31.066406 6.214844 -32.484375 5.058594 -33.195312 L 3.460938 -34.171875 C 3.019531 -34.4375 2.574219 -34.4375 2.128906 -34.261719 C 1.6875 -34.082031 1.421875 -33.726562 1.242188 -33.285156 C -0.175781 -27.335938 -0.621094 -14.378906 1.066406 -6.746094 C 1.421875 -5.324219 2.574219 -4.347656 3.992188 -4.261719 L 4.527344 -4.171875 L 4.617188 -4.171875 C 5.058594 -4.171875 5.414062 -4.347656 5.679688 -4.703125 C 6.035156 -4.96875 6.214844 -5.414062 6.125 -5.859375 C 5.859375 -7.542969 5.679688 -10.117188 5.589844 -12.957031 C 5.589844 -16.152344 10.5625 -26.628906 15.976562 -32.042969 C 16.773438 -32.929688 17.574219 -33.550781 18.285156 -34.082031 C 18.816406 -34.347656 19.703125 -34.527344 20.058594 -34.261719 C 20.414062 -33.90625 20.414062 -33.015625 20.058594 -31.863281 L 19.261719 -29.199219 C 17.484375 -23.609375 14.199219 -13.136719 14.113281 -7.1875 C 14.113281 -4.4375 14.554688 -2.929688 16.953125 -2.042969 C 17.75 -1.773438 18.460938 -1.597656 19.082031 -1.597656 C 20.859375 -1.597656 21.921875 -2.664062 22.542969 -3.371094 L 22.722656 -3.460938 C 25.652344 -5.769531 29.199219 -12.691406 30.886719 -17.574219 C 31.066406 -17.839844 30.886719 -18.285156 30.53125 -18.371094 Z M 30.53125 -18.371094 "/></g></g></g><g fill="rgb(0%, 0%, 0%)" fill-opacity="1"><g transform="translate(151.665948, 205.891818)"><g><path d="M 35.324219 -17.75 C 35.324219 -18.105469 35.058594 -18.371094 34.703125 -18.371094 C 31.507812 -18.371094 29.46875 -22.101562 29.023438 -23.785156 C 28.933594 -24.054688 28.667969 -24.230469 28.402344 -24.230469 C 28.046875 -24.230469 27.78125 -23.964844 27.78125 -23.609375 C 27.515625 -20.148438 26.628906 -15.355469 25.207031 -12.160156 C 25.03125 -11.804688 24.40625 -11.003906 23.519531 -11.003906 C 23.078125 -11.003906 22.722656 -11.183594 22.367188 -11.539062 C 20.589844 -13.667969 21.566406 -21.210938 22.101562 -25.296875 C 22.367188 -26.894531 21.390625 -28.226562 19.882812 -28.578125 L 18.992188 -28.757812 C 18.550781 -28.847656 18.019531 -28.757812 17.664062 -28.492188 C 17.21875 -28.226562 16.953125 -27.78125 16.863281 -27.335938 C 16.6875 -26.714844 16.332031 -24.496094 16.152344 -21.746094 C 15.175781 -17.574219 13.226562 -9.585938 10.5625 -4.882812 L 10.382812 -4.703125 C 10.382812 -4.617188 9.675781 -3.019531 8.433594 -3.195312 C 8.253906 -3.285156 8.078125 -3.460938 7.898438 -3.726562 C 6.125 -6.480469 5.859375 -18.816406 9.410156 -31.066406 C 9.941406 -32.664062 9.320312 -34.4375 7.988281 -35.324219 L 6.746094 -36.210938 C 6.214844 -36.65625 5.589844 -36.746094 4.96875 -36.566406 C 4.4375 -36.390625 3.90625 -35.945312 3.726562 -35.324219 C 1.597656 -29.824219 0.0898438 -21.835938 -0.175781 -15.089844 C -0.355469 -9.140625 0.355469 -1.773438 4.703125 0.0898438 C 5.238281 0.265625 5.679688 0.445312 6.214844 0.445312 C 6.835938 0.445312 7.367188 0.265625 7.988281 -0.0898438 C 9.140625 -0.710938 10.117188 -1.773438 11.09375 -3.285156 C 11.359375 -3.726562 11.539062 -4.082031 11.628906 -4.082031 L 11.628906 -4.171875 C 13.492188 -7.542969 15 -12.070312 16.066406 -16.066406 C 16.332031 -13.3125 16.953125 -10.652344 18.285156 -8.964844 C 19.261719 -7.898438 20.414062 -7.277344 21.835938 -7.277344 C 26.359375 -7.277344 28.136719 -16.421875 28.757812 -21.035156 C 29.910156 -19.171875 31.953125 -17.128906 34.703125 -17.128906 C 35.058594 -17.128906 35.324219 -17.394531 35.324219 -17.75 Z M 35.324219 -17.75 "/></g></g></g><g fill="rgb(0%, 0%, 0%)" fill-opacity="1"><g transform="translate(186.366171, 205.891818)"><g><path d="M 2.21875 -2.128906 C 2.664062 -2.042969 3.105469 -1.953125 3.550781 -1.953125 C 6.214844 -1.953125 9.140625 -4.261719 12.425781 -8.964844 C 15.175781 -12.957031 17.21875 -17.21875 17.21875 -17.21875 C 17.394531 -17.574219 17.21875 -17.929688 16.863281 -18.105469 C 16.597656 -18.285156 16.152344 -18.105469 16.066406 -17.839844 C 14.46875 -14.378906 10.296875 -7.011719 6.390625 -4.261719 L 6.300781 -4.261719 C 5.945312 -3.992188 5.859375 -4.082031 5.769531 -4.171875 C 5.148438 -4.527344 4.347656 -6.566406 4.703125 -10.738281 C 5.238281 -16.066406 7.457031 -22.722656 9.320312 -27.160156 C 9.941406 -28.578125 9.410156 -30.265625 8.078125 -31.152344 L 6.65625 -32.042969 C 6.125 -32.394531 5.589844 -32.394531 5.058594 -32.308594 C 4.527344 -32.128906 4.082031 -31.6875 3.90625 -31.152344 C 1.863281 -26.449219 -2.929688 -10.5625 -0.175781 -4.4375 C 0.355469 -3.285156 1.152344 -2.484375 2.21875 -2.128906 Z M 9.585938 -34.347656 C 10.03125 -34.171875 10.382812 -34.171875 10.738281 -34.171875 C 11.449219 -34.171875 12.335938 -34.613281 12.601562 -35.148438 L 14.644531 -38.609375 C 15.175781 -39.761719 15.265625 -40.738281 15 -41.804688 C 14.554688 -42.871094 13.667969 -43.757812 12.601562 -44.289062 L 12.335938 -44.378906 C 11.183594 -44.910156 9.941406 -44.46875 9.410156 -43.492188 L 7.1875 -38.699219 C 6.566406 -37.277344 7.101562 -35.679688 8.519531 -34.96875 Z M 9.585938 -34.347656 "/></g></g></g><g fill="rgb(0%, 0%, 0%)" fill-opacity="1"><g transform="translate(202.340698, 205.891818)"><g><path d="M 30.53125 -18.371094 C 30.175781 -18.460938 29.824219 -18.285156 29.644531 -18.019531 C 27.601562 -12.070312 24.054688 -6.214844 21.921875 -4.527344 C 21.835938 -4.4375 21.835938 -4.4375 21.746094 -4.4375 C 21.480469 -4.171875 21.210938 -4.082031 20.945312 -4.082031 C 20.859375 -3.992188 20.589844 -3.992188 20.324219 -4.527344 C 19.082031 -6.566406 21.746094 -16.066406 23.519531 -22.367188 C 24.851562 -26.804688 25.5625 -29.46875 25.472656 -30.445312 C 25.207031 -33.285156 23.433594 -36.300781 20.769531 -36.300781 C 19.082031 -36.300781 17.128906 -35.148438 15 -33.015625 C 11.183594 -29.113281 7.457031 -22.632812 5.503906 -17.839844 C 5.589844 -22.1875 5.859375 -26.628906 6.480469 -29.734375 C 6.835938 -31.066406 6.214844 -32.484375 5.058594 -33.195312 L 3.460938 -34.171875 C 3.019531 -34.4375 2.574219 -34.4375 2.128906 -34.261719 C 1.6875 -34.082031 1.421875 -33.726562 1.242188 -33.285156 C -0.175781 -27.335938 -0.621094 -14.378906 1.066406 -6.746094 C 1.421875 -5.324219 2.574219 -4.347656 3.992188 -4.261719 L 4.527344 -4.171875 L 4.617188 -4.171875 C 5.058594 -4.171875 5.414062 -4.347656 5.679688 -4.703125 C 6.035156 -4.96875 6.214844 -5.414062 6.125 -5.859375 C 5.859375 -7.542969 5.679688 -10.117188 5.589844 -12.957031 C 5.589844 -16.152344 10.5625 -26.628906 15.976562 -32.042969 C 16.773438 -32.929688 17.574219 -33.550781 18.285156 -34.082031 C 18.816406 -34.347656 19.703125 -34.527344 20.058594 -34.261719 C 20.414062 -33.90625 20.414062 -33.015625 20.058594 -31.863281 L 19.261719 -29.199219 C 17.484375 -23.609375 14.199219 -13.136719 14.113281 -7.1875 C 14.113281 -4.4375 14.554688 -2.929688 16.953125 -2.042969 C 17.75 -1.773438 18.460938 -1.597656 19.082031 -1.597656 C 20.859375 -1.597656 21.921875 -2.664062 22.542969 -3.371094 L 22.722656 -3.460938 C 25.652344 -5.769531 29.199219 -12.691406 30.886719 -17.574219 C 31.066406 -17.839844 30.886719 -18.285156 30.53125 -18.371094 Z M 30.53125 -18.371094 "/></g></g></g><g fill="rgb(0%, 0%, 0%)" fill-opacity="1"><g transform="translate(231.893573, 205.891818)"><g><path d="M 39.761719 -18.371094 C 39.496094 -18.550781 39.054688 -18.371094 38.875 -18.105469 C 36.746094 -14.113281 31.066406 -5.238281 26.539062 -1.953125 C 26.539062 -1.863281 26.449219 -1.863281 26.449219 -1.863281 C 26.003906 -1.597656 25.382812 -1.332031 24.761719 -1.773438 C 24.054688 -2.308594 21.035156 -5.679688 25.03125 -24.40625 C 35.679688 -35.148438 47.75 -56.804688 46.152344 -65.503906 C 45.886719 -67.1875 45 -68.34375 43.757812 -68.964844 C 41.894531 -69.675781 40.03125 -69.585938 37.988281 -68.609375 C 31.066406 -65.058594 24.140625 -51.125 19.792969 -32.21875 L 19.527344 -31.152344 C 18.992188 -32.042969 18.371094 -32.839844 17.484375 -33.371094 C 15.976562 -34.347656 14.113281 -34.4375 12.070312 -33.640625 C 7.1875 -31.863281 -0.175781 -24.320312 -0.445312 -13.757812 C -0.53125 -9.320312 1.152344 -7.367188 2.664062 -6.480469 C 3.640625 -5.945312 4.792969 -5.679688 5.945312 -5.679688 C 7.457031 -5.679688 9.054688 -6.125 10.207031 -6.835938 C 13.136719 -8.609375 15.089844 -11.183594 16.773438 -14.113281 C 16.332031 -8.164062 16.953125 -4.261719 18.550781 -1.953125 C 19.617188 -0.445312 21.125 0.445312 23.078125 0.621094 C 23.164062 0.710938 23.34375 0.710938 23.519531 0.710938 C 24.496094 0.710938 25.738281 0.265625 26.980469 -0.621094 C 27.070312 -0.710938 27.160156 -0.710938 27.160156 -0.796875 C 27.25 -0.796875 27.25 -0.796875 27.25 -0.886719 C 29.289062 -2.308594 31.597656 -4.792969 34.082031 -8.253906 C 37.457031 -12.78125 40.03125 -17.394531 40.03125 -17.484375 C 40.207031 -17.75 40.117188 -18.195312 39.761719 -18.371094 Z M 27.601562 -35.058594 C 33.90625 -58.402344 38.964844 -63.992188 41.449219 -65.324219 C 42.25 -65.769531 42.871094 -65.859375 43.492188 -65.589844 C 44.734375 -65.234375 44.910156 -63.285156 45 -62.929688 C 44.289062 -54.40625 35.148438 -37.277344 25.5625 -26.894531 Z M 17.042969 -17.484375 C 15.089844 -13.578125 13.046875 -10.117188 9.585938 -7.988281 C 8.964844 -7.722656 8.078125 -7.542969 7.367188 -8.253906 C 5.859375 -9.675781 5.414062 -13.492188 7.722656 -19.082031 C 11.273438 -27.871094 16.953125 -30.265625 17.574219 -30.265625 C 18.371094 -30.265625 18.640625 -29.824219 18.816406 -29.554688 C 18.90625 -29.289062 18.992188 -29.023438 18.992188 -28.847656 C 18.105469 -24.496094 17.484375 -20.769531 17.042969 -17.484375 Z M 17.042969 -17.484375 "/></g></g></g><g clip-path="url(#id2)"><g clip-path="url(#id3)"><g clip-path="url(#id4)"><path fill="rgb(0%, 0%, 0%)" d="M 273.40625 187.097656 C 273.351562 187.074219 273.550781 184.863281 275.191406 182.375 C 277.140625 179.4375 280.695312 175.1875 282.324219 171.8125 C 284.015625 168.308594 283.527344 165.941406 283.460938 165.902344 C 283.414062 165.875 283.140625 168.335938 281.289062 171.871094 C 279.625 175.050781 276.28125 179.007812 274.449219 181.792969 C 272.769531 184.34375 272.523438 186.601562 272.484375 186.578125 C 268.363281 183.847656 266.757812 177.21875 272.40625 171.691406 C 278.457031 165.78125 282.945312 165.039062 282.929688 160.738281 C 282.929688 160.738281 288.601562 168.175781 286.429688 176.394531 C 284.261719 184.613281 278.175781 189.402344 273.40625 187.097656 " fill-opacity="1" fill-rule="nonzero"/></g></g></g><g clip-path="url(#id5)"><g clip-path="url(#id6)"><g clip-path="url(#id7)"><path fill="rgb(0%, 0%, 0%)" d="M 297.550781 177.65625 C 297.511719 177.652344 297.246094 176.277344 297.804688 174.445312 C 298.46875 172.28125 299.875 169.003906 300.269531 166.640625 C 300.679688 164.1875 299.964844 162.855469 299.917969 162.847656 C 299.882812 162.839844 300.152344 164.378906 299.648438 166.882812 C 299.199219 169.136719 297.871094 172.199219 297.25 174.246094 C 296.679688 176.125 296.929688 177.535156 296.902344 177.527344 C 293.921875 176.714844 291.777344 173.042969 294.230469 168.570312 C 296.859375 163.78125 299.453125 162.429688 298.683594 159.839844 C 298.683594 159.839844 303.4375 163.179688 303.566406 168.574219 C 303.699219 173.964844 300.851562 178.082031 297.550781 177.65625 " fill-opacity="1" fill-rule="nonzero"/></g></g></g><g clip-path="url(#id8)"><g clip-path="url(#id9)"><g clip-path="url(#id10)"><path fill="rgb(0%, 0%, 0%)" d="M 307.378906 151.539062 C 307.382812 151.566406 306.40625 151.984375 305.003906 151.851562 C 303.34375 151.695312 300.789062 151.15625 299.015625 151.230469 C 297.175781 151.308594 296.277344 152.054688 296.277344 152.089844 C 296.277344 152.117188 297.371094 151.675781 299.261719 151.65625 C 300.960938 151.640625 303.347656 152.15625 304.914062 152.296875 C 306.351562 152.429688 307.359375 152.023438 307.355469 152.042969 C 307.085938 154.40625 304.632812 156.585938 301.089844 155.449219 C 297.296875 154.234375 296.023438 152.503906 294.210938 153.484375 C 294.210938 153.484375 296.136719 149.402344 300.070312 148.457031 C 304.007812 147.511719 307.332031 149 307.378906 151.539062 " fill-opacity="1" fill-rule="nonzero"/></g></g></g><g clip-path="url(#id11)"><g clip-path="url(#id12)"><g clip-path="url(#id13)"><path fill="rgb(0%, 0%, 0%)" d="M 319.3125 156.589844 C 319.273438 156.589844 318.816406 155.269531 319.113281 153.375 C 319.46875 151.140625 320.402344 147.695312 320.464844 145.300781 C 320.527344 142.816406 319.632812 141.597656 319.585938 141.59375 C 319.550781 141.59375 320.03125 143.078125 319.886719 145.628906 C 319.753906 147.925781 318.867188 151.140625 318.539062 153.253906 C 318.238281 155.195312 318.679688 156.554688 318.652344 156.550781 C 315.585938 156.164062 312.949219 152.828125 314.753906 148.054688 C 316.691406 142.949219 319.066406 141.246094 317.945312 138.789062 C 317.945312 138.789062 323.117188 141.433594 324 146.753906 C 324.882812 152.074219 322.640625 156.550781 319.3125 156.589844 " fill-opacity="1" fill-rule="nonzero"/></g></g></g><g clip-path="url(#id14)"><g clip-path="url(#id15)"><g clip-path="url(#id16)"><path fill="rgb(0%, 0%, 0%)" d="M 321.632812 130.773438 C 321.632812 130.746094 322.601562 130.3125 324.007812 130.417969 C 325.667969 130.546875 328.230469 131.042969 330.003906 130.933594 C 331.84375 130.824219 332.726562 130.0625 332.726562 130.027344 C 332.726562 130 331.640625 130.460938 329.75 130.511719 C 328.050781 130.5625 325.65625 130.085938 324.085938 129.972656 C 322.644531 129.863281 321.648438 130.289062 321.648438 130.269531 C 321.878906 127.902344 324.292969 125.679688 327.855469 126.753906 C 331.671875 127.902344 332.972656 129.609375 334.769531 128.59375 C 334.769531 128.59375 332.914062 132.710938 328.996094 133.726562 C 325.078125 134.742188 321.726562 133.3125 321.632812 130.773438 " fill-opacity="1" fill-rule="nonzero"/></g></g></g><g clip-path="url(#id17)"><g clip-path="url(#id18)"><g clip-path="url(#id19)"><path fill="rgb(0%, 0%, 0%)" d="M 309.613281 125.929688 C 309.648438 125.929688 310.132812 127.242188 309.867188 129.140625 C 309.550781 131.382812 308.675781 134.84375 308.660156 137.238281 C 308.640625 139.726562 309.558594 140.925781 309.605469 140.929688 C 309.636719 140.929688 309.132812 139.453125 309.234375 136.898438 C 309.320312 134.601562 310.15625 131.371094 310.445312 129.253906 C 310.714844 127.308594 310.246094 125.953125 310.273438 125.957031 C 313.347656 126.292969 316.039062 129.582031 314.320312 134.382812 C 312.476562 139.523438 310.128906 141.265625 311.292969 143.703125 C 311.292969 143.703125 306.074219 141.152344 305.097656 135.847656 C 304.121094 130.542969 306.285156 126.027344 309.613281 125.929688 " fill-opacity="1" fill-rule="nonzero"/></g></g></g><g fill="rgb(0%, 0%, 0%)" fill-opacity="1"><g transform="translate(24.832034, 263.306438)"><g><path d="M 4.4375 -5.890625 L 8.234375 -5.890625 L 8.234375 -3.21875 C 8.234375 -2.707031 8.144531 -2.242188 7.96875 -1.828125 C 7.800781 -1.410156 7.5625 -1.054688 7.25 -0.765625 C 6.9375 -0.472656 6.5625 -0.242188 6.125 -0.078125 C 5.6875 0.078125 5.195312 0.15625 4.65625 0.15625 C 4.113281 0.15625 3.617188 0.078125 3.171875 -0.078125 C 2.734375 -0.242188 2.359375 -0.472656 2.046875 -0.765625 C 1.734375 -1.054688 1.488281 -1.410156 1.3125 -1.828125 C 1.144531 -2.253906 1.0625 -2.71875 1.0625 -3.21875 L 1.0625 -7.9375 C 1.0625 -8.445312 1.144531 -8.90625 1.3125 -9.3125 C 1.488281 -9.71875 1.734375 -10.066406 2.046875 -10.359375 C 2.367188 -10.648438 2.75 -10.875 3.1875 -11.03125 C 3.625 -11.195312 4.113281 -11.28125 4.65625 -11.28125 C 5.65625 -11.28125 6.46875 -11.023438 7.09375 -10.515625 C 7.726562 -10.015625 8.125 -9.296875 8.28125 -8.359375 L 6.5625 -8.359375 C 6.476562 -8.785156 6.265625 -9.125 5.921875 -9.375 C 5.585938 -9.632812 5.164062 -9.765625 4.65625 -9.765625 C 4.070312 -9.765625 3.613281 -9.597656 3.28125 -9.265625 C 2.945312 -8.941406 2.78125 -8.5 2.78125 -7.9375 L 2.78125 -3.21875 C 2.78125 -2.632812 2.945312 -2.175781 3.28125 -1.84375 C 3.613281 -1.507812 4.070312 -1.34375 4.65625 -1.34375 C 5.226562 -1.34375 5.679688 -1.507812 6.015625 -1.84375 C 6.359375 -2.175781 6.53125 -2.632812 6.53125 -3.21875 L 6.53125 -4.40625 L 4.4375 -4.40625 Z M 4.4375 -5.890625 "/></g></g></g><g fill="rgb(0%, 0%, 0%)" fill-opacity="1"><g transform="translate(34.127394, 263.306438)"><g><path d="M 1.265625 -8.53125 L 2.96875 -8.53125 L 2.96875 -3.109375 C 2.96875 -1.921875 3.523438 -1.328125 4.640625 -1.328125 C 5.773438 -1.328125 6.34375 -1.921875 6.34375 -3.109375 L 6.34375 -8.53125 L 8.03125 -8.53125 L 8.03125 -3.109375 C 8.03125 -2.066406 7.734375 -1.257812 7.140625 -0.6875 C 6.554688 -0.125 5.722656 0.15625 4.640625 0.15625 C 3.566406 0.15625 2.734375 -0.128906 2.140625 -0.703125 C 1.554688 -1.273438 1.265625 -2.078125 1.265625 -3.109375 Z M 1.265625 -8.53125 "/></g></g></g><g fill="rgb(0%, 0%, 0%)" fill-opacity="1"><g transform="translate(43.422754, 263.306438)"><g><path d="M 1.359375 0 L 1.359375 -1.546875 L 4.453125 -1.546875 L 4.453125 -6.984375 L 1.75 -6.984375 L 1.75 -8.53125 L 6.09375 -8.53125 L 6.09375 -1.546875 L 8.609375 -1.546875 L 8.609375 0 Z M 4.875 -11.859375 L 5.234375 -11.859375 C 5.554688 -11.859375 5.816406 -11.765625 6.015625 -11.578125 C 6.210938 -11.398438 6.3125 -11.160156 6.3125 -10.859375 C 6.3125 -10.566406 6.210938 -10.332031 6.015625 -10.15625 C 5.816406 -9.976562 5.554688 -9.890625 5.234375 -9.890625 L 4.875 -9.890625 C 4.5625 -9.890625 4.304688 -9.976562 4.109375 -10.15625 C 3.921875 -10.332031 3.828125 -10.566406 3.828125 -10.859375 C 3.828125 -11.160156 3.921875 -11.398438 4.109375 -11.578125 C 4.304688 -11.765625 4.5625 -11.859375 4.875 -11.859375 Z M 4.875 -11.859375 "/></g></g></g><g fill="rgb(0%, 0%, 0%)" fill-opacity="1"><g transform="translate(52.718114, 263.306438)"><g><path d="M 1.0625 -5.34375 C 1.0625 -5.863281 1.128906 -6.328125 1.265625 -6.734375 C 1.410156 -7.140625 1.609375 -7.488281 1.859375 -7.78125 C 2.117188 -8.070312 2.425781 -8.296875 2.78125 -8.453125 C 3.144531 -8.609375 3.546875 -8.6875 3.984375 -8.6875 C 4.597656 -8.6875 5.109375 -8.539062 5.515625 -8.25 C 5.929688 -7.96875 6.195312 -7.566406 6.3125 -7.046875 L 6.453125 -7.046875 C 6.441406 -7.222656 6.429688 -7.398438 6.421875 -7.578125 C 6.398438 -7.734375 6.382812 -7.894531 6.375 -8.0625 C 6.375 -8.238281 6.375 -8.394531 6.375 -8.53125 L 6.375 -11.3125 L 8.0625 -11.3125 L 8.0625 0 L 6.453125 0 L 6.453125 -1.46875 L 6.3125 -1.46875 C 6.195312 -0.957031 5.929688 -0.554688 5.515625 -0.265625 C 5.109375 0.015625 4.597656 0.15625 3.984375 0.15625 C 3.546875 0.15625 3.144531 0.078125 2.78125 -0.078125 C 2.425781 -0.234375 2.117188 -0.453125 1.859375 -0.734375 C 1.609375 -1.023438 1.410156 -1.378906 1.265625 -1.796875 C 1.128906 -2.222656 1.0625 -2.691406 1.0625 -3.203125 Z M 4.609375 -1.328125 C 5.140625 -1.328125 5.566406 -1.5 5.890625 -1.84375 C 6.210938 -2.1875 6.375 -2.640625 6.375 -3.203125 L 6.375 -5.3125 C 6.375 -5.894531 6.207031 -6.351562 5.875 -6.6875 C 5.550781 -7.03125 5.128906 -7.203125 4.609375 -7.203125 C 4.035156 -7.203125 3.585938 -7.035156 3.265625 -6.703125 C 2.941406 -6.367188 2.78125 -5.90625 2.78125 -5.3125 L 2.78125 -3.21875 C 2.78125 -2.644531 2.941406 -2.1875 3.265625 -1.84375 C 3.585938 -1.5 4.035156 -1.328125 4.609375 -1.328125 Z M 4.609375 -1.328125 "/></g></g></g><g fill="rgb(0%, 0%, 0%)" fill-opacity="1"><g transform="translate(62.013474, 263.306438)"><g><path d="M 4.65625 0.15625 C 4.101562 0.15625 3.609375 0.078125 3.171875 -0.078125 C 2.734375 -0.234375 2.359375 -0.453125 2.046875 -0.734375 C 1.734375 -1.023438 1.488281 -1.375 1.3125 -1.78125 C 1.144531 -2.1875 1.0625 -2.640625 1.0625 -3.140625 L 1.0625 -5.375 C 1.0625 -5.882812 1.144531 -6.34375 1.3125 -6.75 C 1.488281 -7.15625 1.734375 -7.5 2.046875 -7.78125 C 2.359375 -8.070312 2.734375 -8.296875 3.171875 -8.453125 C 3.609375 -8.609375 4.101562 -8.6875 4.65625 -8.6875 C 5.195312 -8.6875 5.6875 -8.609375 6.125 -8.453125 C 6.5625 -8.296875 6.9375 -8.070312 7.25 -7.78125 C 7.5625 -7.5 7.800781 -7.15625 7.96875 -6.75 C 8.132812 -6.34375 8.21875 -5.882812 8.21875 -5.375 L 8.21875 -3.8125 L 2.78125 -3.8125 L 2.78125 -3.203125 C 2.78125 -2.597656 2.941406 -2.125 3.265625 -1.78125 C 3.597656 -1.4375 4.0625 -1.265625 4.65625 -1.265625 C 5.082031 -1.265625 5.453125 -1.332031 5.765625 -1.46875 C 6.085938 -1.601562 6.320312 -1.800781 6.46875 -2.0625 L 8.15625 -2.0625 C 8.0625 -1.71875 7.910156 -1.410156 7.703125 -1.140625 C 7.492188 -0.878906 7.238281 -0.648438 6.9375 -0.453125 C 6.632812 -0.253906 6.285156 -0.101562 5.890625 0 C 5.503906 0.101562 5.09375 0.15625 4.65625 0.15625 Z M 6.546875 -5.046875 L 6.546875 -5.375 C 6.546875 -5.96875 6.378906 -6.429688 6.046875 -6.765625 C 5.710938 -7.097656 5.25 -7.265625 4.65625 -7.265625 C 4.0625 -7.265625 3.597656 -7.097656 3.265625 -6.765625 C 2.941406 -6.429688 2.78125 -5.96875 2.78125 -5.375 L 2.78125 -5.046875 Z M 6.546875 -5.046875 "/></g></g></g><g fill="rgb(0%, 0%, 0%)" fill-opacity="1"><g transform="translate(71.308834, 263.306438)"><g><path d="M 1.0625 -5.34375 C 1.0625 -5.863281 1.128906 -6.328125 1.265625 -6.734375 C 1.410156 -7.140625 1.609375 -7.488281 1.859375 -7.78125 C 2.117188 -8.070312 2.425781 -8.296875 2.78125 -8.453125 C 3.144531 -8.609375 3.546875 -8.6875 3.984375 -8.6875 C 4.597656 -8.6875 5.109375 -8.539062 5.515625 -8.25 C 5.929688 -7.96875 6.195312 -7.566406 6.3125 -7.046875 L 6.453125 -7.046875 C 6.441406 -7.222656 6.429688 -7.398438 6.421875 -7.578125 C 6.398438 -7.734375 6.382812 -7.894531 6.375 -8.0625 C 6.375 -8.238281 6.375 -8.394531 6.375 -8.53125 L 6.375 -11.3125 L 8.0625 -11.3125 L 8.0625 0 L 6.453125 0 L 6.453125 -1.46875 L 6.3125 -1.46875 C 6.195312 -0.957031 5.929688 -0.554688 5.515625 -0.265625 C 5.109375 0.015625 4.597656 0.15625 3.984375 0.15625 C 3.546875 0.15625 3.144531 0.078125 2.78125 -0.078125 C 2.425781 -0.234375 2.117188 -0.453125 1.859375 -0.734375 C 1.609375 -1.023438 1.410156 -1.378906 1.265625 -1.796875 C 1.128906 -2.222656 1.0625 -2.691406 1.0625 -3.203125 Z M 4.609375 -1.328125 C 5.140625 -1.328125 5.566406 -1.5 5.890625 -1.84375 C 6.210938 -2.1875 6.375 -2.640625 6.375 -3.203125 L 6.375 -5.3125 C 6.375 -5.894531 6.207031 -6.351562 5.875 -6.6875 C 5.550781 -7.03125 5.128906 -7.203125 4.609375 -7.203125 C 4.035156 -7.203125 3.585938 -7.035156 3.265625 -6.703125 C 2.941406 -6.367188 2.78125 -5.90625 2.78125 -5.3125 L 2.78125 -3.21875 C 2.78125 -2.644531 2.941406 -2.1875 3.265625 -1.84375 C 3.585938 -1.5 4.035156 -1.328125 4.609375 -1.328125 Z M 4.609375 -1.328125 "/></g></g></g><g fill="rgb(0%, 0%, 0%)" fill-opacity="1"><g transform="translate(80.604194, 263.306438)"><g/></g></g><g fill="rgb(0%, 0%, 0%)" fill-opacity="1"><g transform="translate(89.899554, 263.306438)"><g><path d="M 0.859375 -8.53125 L 2.15625 -8.53125 L 2.15625 -7.265625 L 2.28125 -7.265625 C 2.320312 -7.710938 2.460938 -8.0625 2.703125 -8.3125 C 2.953125 -8.5625 3.289062 -8.6875 3.71875 -8.6875 C 4.125 -8.6875 4.460938 -8.5625 4.734375 -8.3125 C 5.003906 -8.070312 5.191406 -7.722656 5.296875 -7.265625 L 5.359375 -7.265625 C 5.398438 -7.710938 5.546875 -8.0625 5.796875 -8.3125 C 6.046875 -8.5625 6.378906 -8.6875 6.796875 -8.6875 C 7.316406 -8.6875 7.722656 -8.488281 8.015625 -8.09375 C 8.316406 -7.707031 8.46875 -7.175781 8.46875 -6.5 L 8.46875 0 L 7.015625 0 L 7.015625 -6.421875 C 7.015625 -7.097656 6.742188 -7.4375 6.203125 -7.4375 C 5.648438 -7.4375 5.375 -7.078125 5.375 -6.359375 L 5.375 0 L 3.9375 0 L 3.9375 -6.421875 C 3.9375 -6.804688 3.835938 -7.085938 3.640625 -7.265625 C 3.492188 -7.378906 3.316406 -7.4375 3.109375 -7.4375 C 2.910156 -7.4375 2.742188 -7.378906 2.609375 -7.265625 C 2.398438 -7.097656 2.296875 -6.796875 2.296875 -6.359375 L 2.296875 0 L 0.859375 0 Z M 0.859375 -8.53125 "/></g></g></g><g fill="rgb(0%, 0%, 0%)" fill-opacity="1"><g transform="translate(99.194914, 263.306438)"><g><path d="M 4.65625 0.15625 C 4.101562 0.15625 3.609375 0.078125 3.171875 -0.078125 C 2.734375 -0.234375 2.359375 -0.453125 2.046875 -0.734375 C 1.734375 -1.023438 1.488281 -1.375 1.3125 -1.78125 C 1.144531 -2.1875 1.0625 -2.640625 1.0625 -3.140625 L 1.0625 -5.375 C 1.0625 -5.882812 1.144531 -6.34375 1.3125 -6.75 C 1.488281 -7.15625 1.734375 -7.5 2.046875 -7.78125 C 2.359375 -8.070312 2.734375 -8.296875 3.171875 -8.453125 C 3.609375 -8.609375 4.101562 -8.6875 4.65625 -8.6875 C 5.195312 -8.6875 5.6875 -8.609375 6.125 -8.453125 C 6.5625 -8.296875 6.9375 -8.070312 7.25 -7.78125 C 7.5625 -7.5 7.800781 -7.15625 7.96875 -6.75 C 8.132812 -6.34375 8.21875 -5.882812 8.21875 -5.375 L 8.21875 -3.8125 L 2.78125 -3.8125 L 2.78125 -3.203125 C 2.78125 -2.597656 2.941406 -2.125 3.265625 -1.78125 C 3.597656 -1.4375 4.0625 -1.265625 4.65625 -1.265625 C 5.082031 -1.265625 5.453125 -1.332031 5.765625 -1.46875 C 6.085938 -1.601562 6.320312 -1.800781 6.46875 -2.0625 L 8.15625 -2.0625 C 8.0625 -1.71875 7.910156 -1.410156 7.703125 -1.140625 C 7.492188 -0.878906 7.238281 -0.648438 6.9375 -0.453125 C 6.632812 -0.253906 6.285156 -0.101562 5.890625 0 C 5.503906 0.101562 5.09375 0.15625 4.65625 0.15625 Z M 6.546875 -5.046875 L 6.546875 -5.375 C 6.546875 -5.96875 6.378906 -6.429688 6.046875 -6.765625 C 5.710938 -7.097656 5.25 -7.265625 4.65625 -7.265625 C 4.0625 -7.265625 3.597656 -7.097656 3.265625 -6.765625 C 2.941406 -6.429688 2.78125 -5.96875 2.78125 -5.375 L 2.78125 -5.046875 Z M 6.546875 -5.046875 "/></g></g></g><g fill="rgb(0%, 0%, 0%)" fill-opacity="1"><g transform="translate(108.490274, 263.306438)"><g><path d="M 1.0625 -5.34375 C 1.0625 -5.863281 1.128906 -6.328125 1.265625 -6.734375 C 1.410156 -7.140625 1.609375 -7.488281 1.859375 -7.78125 C 2.117188 -8.070312 2.425781 -8.296875 2.78125 -8.453125 C 3.144531 -8.609375 3.546875 -8.6875 3.984375 -8.6875 C 4.597656 -8.6875 5.109375 -8.539062 5.515625 -8.25 C 5.929688 -7.96875 6.195312 -7.566406 6.3125 -7.046875 L 6.453125 -7.046875 C 6.441406 -7.222656 6.429688 -7.398438 6.421875 -7.578125 C 6.398438 -7.734375 6.382812 -7.894531 6.375 -8.0625 C 6.375 -8.238281 6.375 -8.394531 6.375 -8.53125 L 6.375 -11.3125 L 8.0625 -11.3125 L 8.0625 0 L 6.453125 0 L 6.453125 -1.46875 L 6.3125 -1.46875 C 6.195312 -0.957031 5.929688 -0.554688 5.515625 -0.265625 C 5.109375 0.015625 4.597656 0.15625 3.984375 0.15625 C 3.546875 0.15625 3.144531 0.078125 2.78125 -0.078125 C 2.425781 -0.234375 2.117188 -0.453125 1.859375 -0.734375 C 1.609375 -1.023438 1.410156 -1.378906 1.265625 -1.796875 C 1.128906 -2.222656 1.0625 -2.691406 1.0625 -3.203125 Z M 4.609375 -1.328125 C 5.140625 -1.328125 5.566406 -1.5 5.890625 -1.84375 C 6.210938 -2.1875 6.375 -2.640625 6.375 -3.203125 L 6.375 -5.3125 C 6.375 -5.894531 6.207031 -6.351562 5.875 -6.6875 C 5.550781 -7.03125 5.128906 -7.203125 4.609375 -7.203125 C 4.035156 -7.203125 3.585938 -7.035156 3.265625 -6.703125 C 2.941406 -6.367188 2.78125 -5.90625 2.78125 -5.3125 L 2.78125 -3.21875 C 2.78125 -2.644531 2.941406 -2.1875 3.265625 -1.84375 C 3.585938 -1.5 4.035156 -1.328125 4.609375 -1.328125 Z M 4.609375 -1.328125 "/></g></g></g><g fill="rgb(0%, 0%, 0%)" fill-opacity="1"><g transform="translate(117.785634, 263.306438)"><g><path d="M 1.359375 0 L 1.359375 -1.546875 L 4.453125 -1.546875 L 4.453125 -6.984375 L 1.75 -6.984375 L 1.75 -8.53125 L 6.09375 -8.53125 L 6.09375 -1.546875 L 8.609375 -1.546875 L 8.609375 0 Z M 4.875 -11.859375 L 5.234375 -11.859375 C 5.554688 -11.859375 5.816406 -11.765625 6.015625 -11.578125 C 6.210938 -11.398438 6.3125 -11.160156 6.3125 -10.859375 C 6.3125 -10.566406 6.210938 -10.332031 6.015625 -10.15625 C 5.816406 -9.976562 5.554688 -9.890625 5.234375 -9.890625 L 4.875 -9.890625 C 4.5625 -9.890625 4.304688 -9.976562 4.109375 -10.15625 C 3.921875 -10.332031 3.828125 -10.566406 3.828125 -10.859375 C 3.828125 -11.160156 3.921875 -11.398438 4.109375 -11.578125 C 4.304688 -11.765625 4.5625 -11.859375 4.875 -11.859375 Z M 4.875 -11.859375 "/></g></g></g><g fill="rgb(0%, 0%, 0%)" fill-opacity="1"><g transform="translate(127.080994, 263.306438)"><g><path d="M 0.8125 -8.53125 L 3.203125 -8.53125 L 3.203125 -11.15625 L 4.90625 -11.15625 L 4.90625 -8.53125 L 8.1875 -8.53125 L 8.1875 -6.984375 L 4.90625 -6.984375 L 4.90625 -2.453125 C 4.90625 -2.171875 4.988281 -1.945312 5.15625 -1.78125 C 5.320312 -1.625 5.554688 -1.546875 5.859375 -1.546875 L 8.03125 -1.546875 L 8.03125 0 L 5.78125 0 C 4.988281 0 4.359375 -0.21875 3.890625 -0.65625 C 3.429688 -1.101562 3.203125 -1.703125 3.203125 -2.453125 L 3.203125 -6.984375 L 0.8125 -6.984375 Z M 0.8125 -8.53125 "/></g></g></g><g fill="rgb(0%, 0%, 0%)" fill-opacity="1"><g transform="translate(136.376354, 263.306438)"><g><path d="M 0.875 -2.4375 C 0.875 -3.257812 1.160156 -3.910156 1.734375 -4.390625 C 2.304688 -4.867188 3.082031 -5.109375 4.0625 -5.109375 L 6.375 -5.109375 L 6.375 -5.84375 C 6.375 -6.300781 6.210938 -6.65625 5.890625 -6.90625 C 5.578125 -7.164062 5.132812 -7.296875 4.5625 -7.296875 C 4.113281 -7.296875 3.734375 -7.210938 3.421875 -7.046875 C 3.109375 -6.878906 2.910156 -6.65625 2.828125 -6.375 L 1.125 -6.375 C 1.257812 -7.082031 1.632812 -7.644531 2.25 -8.0625 C 2.875 -8.476562 3.648438 -8.6875 4.578125 -8.6875 C 5.660156 -8.6875 6.515625 -8.4375 7.140625 -7.9375 C 7.765625 -7.4375 8.078125 -6.753906 8.078125 -5.890625 L 8.078125 0 L 6.5 0 L 6.5 -1.65625 L 6.375 -1.65625 C 6.257812 -1.101562 5.953125 -0.660156 5.453125 -0.328125 C 4.960938 -0.00390625 4.363281 0.15625 3.65625 0.15625 C 2.800781 0.15625 2.125 -0.0703125 1.625 -0.53125 C 1.125 -1 0.875 -1.632812 0.875 -2.4375 Z M 4.171875 -1.203125 C 4.484375 -1.203125 4.769531 -1.242188 5.03125 -1.328125 C 5.300781 -1.410156 5.535156 -1.523438 5.734375 -1.671875 C 5.929688 -1.828125 6.085938 -2.003906 6.203125 -2.203125 C 6.316406 -2.410156 6.375 -2.632812 6.375 -2.875 L 6.375 -3.9375 L 4.078125 -3.9375 C 3.609375 -3.9375 3.238281 -3.816406 2.96875 -3.578125 C 2.707031 -3.335938 2.578125 -3.003906 2.578125 -2.578125 C 2.578125 -2.140625 2.710938 -1.800781 2.984375 -1.5625 C 3.265625 -1.320312 3.660156 -1.203125 4.171875 -1.203125 Z M 4.171875 -1.203125 "/></g></g></g><g fill="rgb(0%, 0%, 0%)" fill-opacity="1"><g transform="translate(145.671714, 263.306438)"><g><path d="M 0.8125 -8.53125 L 3.203125 -8.53125 L 3.203125 -11.15625 L 4.90625 -11.15625 L 4.90625 -8.53125 L 8.1875 -8.53125 L 8.1875 -6.984375 L 4.90625 -6.984375 L 4.90625 -2.453125 C 4.90625 -2.171875 4.988281 -1.945312 5.15625 -1.78125 C 5.320312 -1.625 5.554688 -1.546875 5.859375 -1.546875 L 8.03125 -1.546875 L 8.03125 0 L 5.78125 0 C 4.988281 0 4.359375 -0.21875 3.890625 -0.65625 C 3.429688 -1.101562 3.203125 -1.703125 3.203125 -2.453125 L 3.203125 -6.984375 L 0.8125 -6.984375 Z M 0.8125 -8.53125 "/></g></g></g><g fill="rgb(0%, 0%, 0%)" fill-opacity="1"><g transform="translate(154.967074, 263.306438)"><g><path d="M 1.359375 0 L 1.359375 -1.546875 L 4.453125 -1.546875 L 4.453125 -6.984375 L 1.75 -6.984375 L 1.75 -8.53125 L 6.09375 -8.53125 L 6.09375 -1.546875 L 8.609375 -1.546875 L 8.609375 0 Z M 4.875 -11.859375 L 5.234375 -11.859375 C 5.554688 -11.859375 5.816406 -11.765625 6.015625 -11.578125 C 6.210938 -11.398438 6.3125 -11.160156 6.3125 -10.859375 C 6.3125 -10.566406 6.210938 -10.332031 6.015625 -10.15625 C 5.816406 -9.976562 5.554688 -9.890625 5.234375 -9.890625 L 4.875 -9.890625 C 4.5625 -9.890625 4.304688 -9.976562 4.109375 -10.15625 C 3.921875 -10.332031 3.828125 -10.566406 3.828125 -10.859375 C 3.828125 -11.160156 3.921875 -11.398438 4.109375 -11.578125 C 4.304688 -11.765625 4.5625 -11.859375 4.875 -11.859375 Z M 4.875 -11.859375 "/></g></g></g><g fill="rgb(0%, 0%, 0%)" fill-opacity="1"><g transform="translate(164.262434, 263.306438)"><g><path d="M 2.78125 -3.203125 C 2.78125 -2.628906 2.941406 -2.175781 3.265625 -1.84375 C 3.597656 -1.507812 4.0625 -1.34375 4.65625 -1.34375 C 5.226562 -1.34375 5.679688 -1.507812 6.015625 -1.84375 C 6.359375 -2.175781 6.53125 -2.628906 6.53125 -3.203125 L 6.53125 -5.328125 C 6.53125 -5.910156 6.359375 -6.363281 6.015625 -6.6875 C 5.679688 -7.019531 5.226562 -7.1875 4.65625 -7.1875 C 4.082031 -7.1875 3.625 -7.019531 3.28125 -6.6875 C 2.945312 -6.351562 2.78125 -5.898438 2.78125 -5.328125 Z M 1.0625 -5.328125 C 1.0625 -5.835938 1.144531 -6.296875 1.3125 -6.703125 C 1.488281 -7.117188 1.734375 -7.472656 2.046875 -7.765625 C 2.359375 -8.054688 2.734375 -8.28125 3.171875 -8.4375 C 3.617188 -8.601562 4.113281 -8.6875 4.65625 -8.6875 C 5.195312 -8.6875 5.6875 -8.601562 6.125 -8.4375 C 6.5625 -8.28125 6.9375 -8.054688 7.25 -7.765625 C 7.5625 -7.472656 7.800781 -7.117188 7.96875 -6.703125 C 8.144531 -6.296875 8.234375 -5.835938 8.234375 -5.328125 L 8.234375 -3.203125 C 8.234375 -2.703125 8.144531 -2.238281 7.96875 -1.8125 C 7.800781 -1.394531 7.5625 -1.039062 7.25 -0.75 C 6.9375 -0.46875 6.5625 -0.242188 6.125 -0.078125 C 5.6875 0.078125 5.195312 0.15625 4.65625 0.15625 C 4.113281 0.15625 3.617188 0.078125 3.171875 -0.078125 C 2.734375 -0.242188 2.359375 -0.472656 2.046875 -0.765625 C 1.734375 -1.054688 1.488281 -1.410156 1.3125 -1.828125 C 1.144531 -2.242188 1.0625 -2.703125 1.0625 -3.203125 Z M 1.0625 -5.328125 "/></g></g></g><g fill="rgb(0%, 0%, 0%)" fill-opacity="1"><g transform="translate(173.557794, 263.306438)"><g><path d="M 1.21875 0 L 1.21875 -8.53125 L 2.84375 -8.53125 L 2.84375 -7.046875 L 2.96875 -7.046875 C 3.082031 -7.566406 3.335938 -7.96875 3.734375 -8.25 C 4.140625 -8.539062 4.644531 -8.6875 5.25 -8.6875 C 5.675781 -8.6875 6.0625 -8.613281 6.40625 -8.46875 C 6.75 -8.320312 7.039062 -8.113281 7.28125 -7.84375 C 7.53125 -7.570312 7.722656 -7.25 7.859375 -6.875 C 7.992188 -6.5 8.0625 -6.078125 8.0625 -5.609375 L 8.0625 0 L 6.375 0 L 6.375 -5.375 C 6.375 -5.957031 6.21875 -6.410156 5.90625 -6.734375 C 5.601562 -7.054688 5.191406 -7.21875 4.671875 -7.21875 C 4.128906 -7.21875 3.703125 -7.046875 3.390625 -6.703125 C 3.078125 -6.367188 2.921875 -5.90625 2.921875 -5.3125 L 2.921875 0 Z M 1.21875 0 "/></g></g></g><g fill="rgb(0%, 0%, 0%)" fill-opacity="1"><g transform="translate(182.853154, 263.306438)"><g/></g></g><g fill="rgb(0%, 0%, 0%)" fill-opacity="1"><g transform="translate(192.148514, 263.306438)"><g><path d="M 0.875 -2.4375 C 0.875 -3.257812 1.160156 -3.910156 1.734375 -4.390625 C 2.304688 -4.867188 3.082031 -5.109375 4.0625 -5.109375 L 6.375 -5.109375 L 6.375 -5.84375 C 6.375 -6.300781 6.210938 -6.65625 5.890625 -6.90625 C 5.578125 -7.164062 5.132812 -7.296875 4.5625 -7.296875 C 4.113281 -7.296875 3.734375 -7.210938 3.421875 -7.046875 C 3.109375 -6.878906 2.910156 -6.65625 2.828125 -6.375 L 1.125 -6.375 C 1.257812 -7.082031 1.632812 -7.644531 2.25 -8.0625 C 2.875 -8.476562 3.648438 -8.6875 4.578125 -8.6875 C 5.660156 -8.6875 6.515625 -8.4375 7.140625 -7.9375 C 7.765625 -7.4375 8.078125 -6.753906 8.078125 -5.890625 L 8.078125 0 L 6.5 0 L 6.5 -1.65625 L 6.375 -1.65625 C 6.257812 -1.101562 5.953125 -0.660156 5.453125 -0.328125 C 4.960938 -0.00390625 4.363281 0.15625 3.65625 0.15625 C 2.800781 0.15625 2.125 -0.0703125 1.625 -0.53125 C 1.125 -1 0.875 -1.632812 0.875 -2.4375 Z M 4.171875 -1.203125 C 4.484375 -1.203125 4.769531 -1.242188 5.03125 -1.328125 C 5.300781 -1.410156 5.535156 -1.523438 5.734375 -1.671875 C 5.929688 -1.828125 6.085938 -2.003906 6.203125 -2.203125 C 6.316406 -2.410156 6.375 -2.632812 6.375 -2.875 L 6.375 -3.9375 L 4.078125 -3.9375 C 3.609375 -3.9375 3.238281 -3.816406 2.96875 -3.578125 C 2.707031 -3.335938 2.578125 -3.003906 2.578125 -2.578125 C 2.578125 -2.140625 2.710938 -1.800781 2.984375 -1.5625 C 3.265625 -1.320312 3.660156 -1.203125 4.171875 -1.203125 Z M 4.171875 -1.203125 "/></g></g></g><g fill="rgb(0%, 0%, 0%)" fill-opacity="1"><g transform="translate(201.443874, 263.306438)"><g><path d="M 1.21875 0 L 1.21875 -8.53125 L 2.84375 -8.53125 L 2.84375 -7.046875 L 2.96875 -7.046875 C 3.082031 -7.566406 3.335938 -7.96875 3.734375 -8.25 C 4.140625 -8.539062 4.644531 -8.6875 5.25 -8.6875 C 5.675781 -8.6875 6.0625 -8.613281 6.40625 -8.46875 C 6.75 -8.320312 7.039062 -8.113281 7.28125 -7.84375 C 7.53125 -7.570312 7.722656 -7.25 7.859375 -6.875 C 7.992188 -6.5 8.0625 -6.078125 8.0625 -5.609375 L 8.0625 0 L 6.375 0 L 6.375 -5.375 C 6.375 -5.957031 6.21875 -6.410156 5.90625 -6.734375 C 5.601562 -7.054688 5.191406 -7.21875 4.671875 -7.21875 C 4.128906 -7.21875 3.703125 -7.046875 3.390625 -6.703125 C 3.078125 -6.367188 2.921875 -5.90625 2.921875 -5.3125 L 2.921875 0 Z M 1.21875 0 "/></g></g></g><g fill="rgb(0%, 0%, 0%)" fill-opacity="1"><g transform="translate(210.739234, 263.306438)"><g><path d="M 1.0625 -5.34375 C 1.0625 -5.863281 1.128906 -6.328125 1.265625 -6.734375 C 1.410156 -7.140625 1.609375 -7.488281 1.859375 -7.78125 C 2.117188 -8.070312 2.425781 -8.296875 2.78125 -8.453125 C 3.144531 -8.609375 3.546875 -8.6875 3.984375 -8.6875 C 4.597656 -8.6875 5.109375 -8.539062 5.515625 -8.25 C 5.929688 -7.96875 6.195312 -7.566406 6.3125 -7.046875 L 6.453125 -7.046875 C 6.441406 -7.222656 6.429688 -7.398438 6.421875 -7.578125 C 6.398438 -7.734375 6.382812 -7.894531 6.375 -8.0625 C 6.375 -8.238281 6.375 -8.394531 6.375 -8.53125 L 6.375 -11.3125 L 8.0625 -11.3125 L 8.0625 0 L 6.453125 0 L 6.453125 -1.46875 L 6.3125 -1.46875 C 6.195312 -0.957031 5.929688 -0.554688 5.515625 -0.265625 C 5.109375 0.015625 4.597656 0.15625 3.984375 0.15625 C 3.546875 0.15625 3.144531 0.078125 2.78125 -0.078125 C 2.425781 -0.234375 2.117188 -0.453125 1.859375 -0.734375 C 1.609375 -1.023438 1.410156 -1.378906 1.265625 -1.796875 C 1.128906 -2.222656 1.0625 -2.691406 1.0625 -3.203125 Z M 4.609375 -1.328125 C 5.140625 -1.328125 5.566406 -1.5 5.890625 -1.84375 C 6.210938 -2.1875 6.375 -2.640625 6.375 -3.203125 L 6.375 -5.3125 C 6.375 -5.894531 6.207031 -6.351562 5.875 -6.6875 C 5.550781 -7.03125 5.128906 -7.203125 4.609375 -7.203125 C 4.035156 -7.203125 3.585938 -7.035156 3.265625 -6.703125 C 2.941406 -6.367188 2.78125 -5.90625 2.78125 -5.3125 L 2.78125 -3.21875 C 2.78125 -2.644531 2.941406 -2.1875 3.265625 -1.84375 C 3.585938 -1.5 4.035156 -1.328125 4.609375 -1.328125 Z M 4.609375 -1.328125 "/></g></g></g><g fill="rgb(0%, 0%, 0%)" fill-opacity="1"><g transform="translate(220.034582, 263.306438)"><g/></g></g><g fill="rgb(0%, 0%, 0%)" fill-opacity="1"><g transform="translate(229.329931, 263.306438)"><g><path d="M 0.984375 0 L 0.984375 -11.15625 L 3.03125 -11.15625 L 4.328125 -7.515625 C 4.378906 -7.398438 4.421875 -7.269531 4.453125 -7.125 C 4.492188 -6.976562 4.523438 -6.851562 4.546875 -6.75 C 4.578125 -6.601562 4.609375 -6.460938 4.640625 -6.328125 L 4.75 -6.328125 C 4.78125 -6.460938 4.8125 -6.601562 4.84375 -6.75 C 4.863281 -6.851562 4.890625 -6.976562 4.921875 -7.125 C 4.960938 -7.269531 5.003906 -7.398438 5.046875 -7.515625 L 6.25 -11.15625 L 8.328125 -11.15625 L 8.328125 0 L 6.78125 0 L 6.78125 -7.5 C 6.78125 -7.707031 6.785156 -7.925781 6.796875 -8.15625 C 6.804688 -8.394531 6.820312 -8.613281 6.84375 -8.8125 C 6.863281 -9.0625 6.882812 -9.304688 6.90625 -9.546875 L 6.78125 -9.546875 C 6.726562 -9.316406 6.675781 -9.09375 6.625 -8.875 C 6.570312 -8.6875 6.515625 -8.484375 6.453125 -8.265625 C 6.390625 -8.046875 6.332031 -7.847656 6.28125 -7.671875 L 5.40625 -4.921875 L 3.921875 -4.921875 L 3.015625 -7.671875 C 2.960938 -7.859375 2.90625 -8.0625 2.84375 -8.28125 C 2.789062 -8.5 2.738281 -8.703125 2.6875 -8.890625 C 2.632812 -9.109375 2.582031 -9.332031 2.53125 -9.5625 L 2.40625 -9.5625 C 2.425781 -9.320312 2.445312 -9.078125 2.46875 -8.828125 C 2.476562 -8.628906 2.488281 -8.410156 2.5 -8.171875 C 2.507812 -7.929688 2.515625 -7.707031 2.515625 -7.5 L 2.515625 0 Z M 0.984375 0 "/></g></g></g><g fill="rgb(0%, 0%, 0%)" fill-opacity="1"><g transform="translate(238.625279, 263.306438)"><g><path d="M 2.78125 -3.203125 C 2.78125 -2.628906 2.941406 -2.175781 3.265625 -1.84375 C 3.597656 -1.507812 4.0625 -1.34375 4.65625 -1.34375 C 5.226562 -1.34375 5.679688 -1.507812 6.015625 -1.84375 C 6.359375 -2.175781 6.53125 -2.628906 6.53125 -3.203125 L 6.53125 -5.328125 C 6.53125 -5.910156 6.359375 -6.363281 6.015625 -6.6875 C 5.679688 -7.019531 5.226562 -7.1875 4.65625 -7.1875 C 4.082031 -7.1875 3.625 -7.019531 3.28125 -6.6875 C 2.945312 -6.351562 2.78125 -5.898438 2.78125 -5.328125 Z M 1.0625 -5.328125 C 1.0625 -5.835938 1.144531 -6.296875 1.3125 -6.703125 C 1.488281 -7.117188 1.734375 -7.472656 2.046875 -7.765625 C 2.359375 -8.054688 2.734375 -8.28125 3.171875 -8.4375 C 3.617188 -8.601562 4.113281 -8.6875 4.65625 -8.6875 C 5.195312 -8.6875 5.6875 -8.601562 6.125 -8.4375 C 6.5625 -8.28125 6.9375 -8.054688 7.25 -7.765625 C 7.5625 -7.472656 7.800781 -7.117188 7.96875 -6.703125 C 8.144531 -6.296875 8.234375 -5.835938 8.234375 -5.328125 L 8.234375 -3.203125 C 8.234375 -2.703125 8.144531 -2.238281 7.96875 -1.8125 C 7.800781 -1.394531 7.5625 -1.039062 7.25 -0.75 C 6.9375 -0.46875 6.5625 -0.242188 6.125 -0.078125 C 5.6875 0.078125 5.195312 0.15625 4.65625 0.15625 C 4.113281 0.15625 3.617188 0.078125 3.171875 -0.078125 C 2.734375 -0.242188 2.359375 -0.472656 2.046875 -0.765625 C 1.734375 -1.054688 1.488281 -1.410156 1.3125 -1.828125 C 1.144531 -2.242188 1.0625 -2.703125 1.0625 -3.203125 Z M 1.0625 -5.328125 "/></g></g></g><g fill="rgb(0%, 0%, 0%)" fill-opacity="1"><g transform="translate(247.920627, 263.306438)"><g><path d="M 2.78125 -3.203125 C 2.78125 -2.628906 2.941406 -2.175781 3.265625 -1.84375 C 3.597656 -1.507812 4.0625 -1.34375 4.65625 -1.34375 C 5.226562 -1.34375 5.679688 -1.507812 6.015625 -1.84375 C 6.359375 -2.175781 6.53125 -2.628906 6.53125 -3.203125 L 6.53125 -5.328125 C 6.53125 -5.910156 6.359375 -6.363281 6.015625 -6.6875 C 5.679688 -7.019531 5.226562 -7.1875 4.65625 -7.1875 C 4.082031 -7.1875 3.625 -7.019531 3.28125 -6.6875 C 2.945312 -6.351562 2.78125 -5.898438 2.78125 -5.328125 Z M 1.0625 -5.328125 C 1.0625 -5.835938 1.144531 -6.296875 1.3125 -6.703125 C 1.488281 -7.117188 1.734375 -7.472656 2.046875 -7.765625 C 2.359375 -8.054688 2.734375 -8.28125 3.171875 -8.4375 C 3.617188 -8.601562 4.113281 -8.6875 4.65625 -8.6875 C 5.195312 -8.6875 5.6875 -8.601562 6.125 -8.4375 C 6.5625 -8.28125 6.9375 -8.054688 7.25 -7.765625 C 7.5625 -7.472656 7.800781 -7.117188 7.96875 -6.703125 C 8.144531 -6.296875 8.234375 -5.835938 8.234375 -5.328125 L 8.234375 -3.203125 C 8.234375 -2.703125 8.144531 -2.238281 7.96875 -1.8125 C 7.800781 -1.394531 7.5625 -1.039062 7.25 -0.75 C 6.9375 -0.46875 6.5625 -0.242188 6.125 -0.078125 C 5.6875 0.078125 5.195312 0.15625 4.65625 0.15625 C 4.113281 0.15625 3.617188 0.078125 3.171875 -0.078125 C 2.734375 -0.242188 2.359375 -0.472656 2.046875 -0.765625 C 1.734375 -1.054688 1.488281 -1.410156 1.3125 -1.828125 C 1.144531 -2.242188 1.0625 -2.703125 1.0625 -3.203125 Z M 1.0625 -5.328125 "/></g></g></g><g fill="rgb(0%, 0%, 0%)" fill-opacity="1"><g transform="translate(257.215976, 263.306438)"><g><path d="M 1.0625 -5.34375 C 1.0625 -5.863281 1.128906 -6.328125 1.265625 -6.734375 C 1.410156 -7.140625 1.609375 -7.488281 1.859375 -7.78125 C 2.117188 -8.070312 2.425781 -8.296875 2.78125 -8.453125 C 3.144531 -8.609375 3.546875 -8.6875 3.984375 -8.6875 C 4.597656 -8.6875 5.109375 -8.539062 5.515625 -8.25 C 5.929688 -7.96875 6.195312 -7.566406 6.3125 -7.046875 L 6.453125 -7.046875 C 6.441406 -7.222656 6.429688 -7.398438 6.421875 -7.578125 C 6.398438 -7.734375 6.382812 -7.894531 6.375 -8.0625 C 6.375 -8.238281 6.375 -8.394531 6.375 -8.53125 L 6.375 -11.3125 L 8.0625 -11.3125 L 8.0625 0 L 6.453125 0 L 6.453125 -1.46875 L 6.3125 -1.46875 C 6.195312 -0.957031 5.929688 -0.554688 5.515625 -0.265625 C 5.109375 0.015625 4.597656 0.15625 3.984375 0.15625 C 3.546875 0.15625 3.144531 0.078125 2.78125 -0.078125 C 2.425781 -0.234375 2.117188 -0.453125 1.859375 -0.734375 C 1.609375 -1.023438 1.410156 -1.378906 1.265625 -1.796875 C 1.128906 -2.222656 1.0625 -2.691406 1.0625 -3.203125 Z M 4.609375 -1.328125 C 5.140625 -1.328125 5.566406 -1.5 5.890625 -1.84375 C 6.210938 -2.1875 6.375 -2.640625 6.375 -3.203125 L 6.375 -5.3125 C 6.375 -5.894531 6.207031 -6.351562 5.875 -6.6875 C 5.550781 -7.03125 5.128906 -7.203125 4.609375 -7.203125 C 4.035156 -7.203125 3.585938 -7.035156 3.265625 -6.703125 C 2.941406 -6.367188 2.78125 -5.90625 2.78125 -5.3125 L 2.78125 -3.21875 C 2.78125 -2.644531 2.941406 -2.1875 3.265625 -1.84375 C 3.585938 -1.5 4.035156 -1.328125 4.609375 -1.328125 Z M 4.609375 -1.328125 "/></g></g></g><g fill="rgb(0%, 0%, 0%)" fill-opacity="1"><g transform="translate(266.511324, 263.306438)"><g/></g></g><g fill="rgb(0%, 0%, 0%)" fill-opacity="1"><g transform="translate(275.806673, 263.306438)"><g><path d="M 0.65625 -11.15625 L 8.65625 -11.15625 L 8.65625 -9.625 L 5.515625 -9.625 L 5.515625 0 L 3.78125 0 L 3.78125 -9.625 L 0.65625 -9.625 Z M 0.65625 -11.15625 "/></g></g></g><g fill="rgb(0%, 0%, 0%)" fill-opacity="1"><g transform="translate(285.102021, 263.306438)"><g><path d="M 1.578125 -8.53125 L 3.1875 -8.53125 L 3.1875 -7.046875 L 3.328125 -7.046875 C 3.441406 -7.566406 3.707031 -7.96875 4.125 -8.25 C 4.550781 -8.539062 5.078125 -8.6875 5.703125 -8.6875 C 6.609375 -8.6875 7.320312 -8.398438 7.84375 -7.828125 C 8.363281 -7.265625 8.625 -6.484375 8.625 -5.484375 L 8.625 -4.921875 L 6.859375 -4.921875 L 6.859375 -5.3125 C 6.859375 -5.914062 6.695312 -6.382812 6.375 -6.71875 C 6.0625 -7.050781 5.625 -7.21875 5.0625 -7.21875 C 4.519531 -7.21875 4.085938 -7.046875 3.765625 -6.703125 C 3.441406 -6.367188 3.28125 -5.90625 3.28125 -5.3125 L 3.28125 0 L 1.578125 0 Z M 1.578125 -8.53125 "/></g></g></g><g fill="rgb(0%, 0%, 0%)" fill-opacity="1"><g transform="translate(294.39737, 263.306438)"><g><path d="M 0.875 -2.4375 C 0.875 -3.257812 1.160156 -3.910156 1.734375 -4.390625 C 2.304688 -4.867188 3.082031 -5.109375 4.0625 -5.109375 L 6.375 -5.109375 L 6.375 -5.84375 C 6.375 -6.300781 6.210938 -6.65625 5.890625 -6.90625 C 5.578125 -7.164062 5.132812 -7.296875 4.5625 -7.296875 C 4.113281 -7.296875 3.734375 -7.210938 3.421875 -7.046875 C 3.109375 -6.878906 2.910156 -6.65625 2.828125 -6.375 L 1.125 -6.375 C 1.257812 -7.082031 1.632812 -7.644531 2.25 -8.0625 C 2.875 -8.476562 3.648438 -8.6875 4.578125 -8.6875 C 5.660156 -8.6875 6.515625 -8.4375 7.140625 -7.9375 C 7.765625 -7.4375 8.078125 -6.753906 8.078125 -5.890625 L 8.078125 0 L 6.5 0 L 6.5 -1.65625 L 6.375 -1.65625 C 6.257812 -1.101562 5.953125 -0.660156 5.453125 -0.328125 C 4.960938 -0.00390625 4.363281 0.15625 3.65625 0.15625 C 2.800781 0.15625 2.125 -0.0703125 1.625 -0.53125 C 1.125 -1 0.875 -1.632812 0.875 -2.4375 Z M 4.171875 -1.203125 C 4.484375 -1.203125 4.769531 -1.242188 5.03125 -1.328125 C 5.300781 -1.410156 5.535156 -1.523438 5.734375 -1.671875 C 5.929688 -1.828125 6.085938 -2.003906 6.203125 -2.203125 C 6.316406 -2.410156 6.375 -2.632812 6.375 -2.875 L 6.375 -3.9375 L 4.078125 -3.9375 C 3.609375 -3.9375 3.238281 -3.816406 2.96875 -3.578125 C 2.707031 -3.335938 2.578125 -3.003906 2.578125 -2.578125 C 2.578125 -2.140625 2.710938 -1.800781 2.984375 -1.5625 C 3.265625 -1.320312 3.660156 -1.203125 4.171875 -1.203125 Z M 4.171875 -1.203125 "/></g></g></g><g fill="rgb(0%, 0%, 0%)" fill-opacity="1"><g transform="translate(303.692718, 263.306438)"><g><path d="M 4.765625 0.15625 C 4.210938 0.15625 3.71875 0.078125 3.28125 -0.078125 C 2.84375 -0.234375 2.46875 -0.453125 2.15625 -0.734375 C 1.84375 -1.023438 1.601562 -1.378906 1.4375 -1.796875 C 1.269531 -2.210938 1.1875 -2.671875 1.1875 -3.171875 L 1.1875 -5.34375 C 1.1875 -5.851562 1.269531 -6.3125 1.4375 -6.71875 C 1.601562 -7.132812 1.84375 -7.488281 2.15625 -7.78125 C 2.46875 -8.070312 2.84375 -8.296875 3.28125 -8.453125 C 3.71875 -8.609375 4.210938 -8.6875 4.765625 -8.6875 C 5.242188 -8.6875 5.6875 -8.617188 6.09375 -8.484375 C 6.507812 -8.347656 6.867188 -8.148438 7.171875 -7.890625 C 7.484375 -7.628906 7.738281 -7.316406 7.9375 -6.953125 C 8.144531 -6.597656 8.28125 -6.191406 8.34375 -5.734375 L 6.640625 -5.734375 C 6.566406 -6.171875 6.359375 -6.519531 6.015625 -6.78125 C 5.671875 -7.050781 5.253906 -7.1875 4.765625 -7.1875 C 4.171875 -7.1875 3.707031 -7.023438 3.375 -6.703125 C 3.050781 -6.378906 2.890625 -5.925781 2.890625 -5.34375 L 2.890625 -3.171875 C 2.890625 -2.597656 3.050781 -2.148438 3.375 -1.828125 C 3.707031 -1.503906 4.171875 -1.34375 4.765625 -1.34375 C 5.253906 -1.34375 5.671875 -1.472656 6.015625 -1.734375 C 6.359375 -2.003906 6.566406 -2.359375 6.640625 -2.796875 L 8.34375 -2.796875 C 8.195312 -1.878906 7.804688 -1.15625 7.171875 -0.625 C 6.535156 -0.101562 5.734375 0.15625 4.765625 0.15625 Z M 4.765625 0.15625 "/></g></g></g><g fill="rgb(0%, 0%, 0%)" fill-opacity="1"><g transform="translate(312.988067, 263.306438)"><g><path d="M 3.015625 -11.3125 L 3.015625 -5.0625 L 4.53125 -5.0625 L 6.859375 -8.53125 L 8.78125 -8.53125 L 5.984375 -4.390625 L 8.828125 0 L 6.859375 0 L 4.53125 -3.59375 L 3.015625 -3.59375 L 3.015625 0 L 1.3125 0 L 1.3125 -11.3125 Z M 3.015625 -11.3125 "/></g></g></g><g fill="rgb(0%, 0%, 0%)" fill-opacity="1"><g transform="translate(322.283415, 263.306438)"><g><path d="M 1.359375 0 L 1.359375 -1.546875 L 4.453125 -1.546875 L 4.453125 -6.984375 L 1.75 -6.984375 L 1.75 -8.53125 L 6.09375 -8.53125 L 6.09375 -1.546875 L 8.609375 -1.546875 L 8.609375 0 Z M 4.875 -11.859375 L 5.234375 -11.859375 C 5.554688 -11.859375 5.816406 -11.765625 6.015625 -11.578125 C 6.210938 -11.398438 6.3125 -11.160156 6.3125 -10.859375 C 6.3125 -10.566406 6.210938 -10.332031 6.015625 -10.15625 C 5.816406 -9.976562 5.554688 -9.890625 5.234375 -9.890625 L 4.875 -9.890625 C 4.5625 -9.890625 4.304688 -9.976562 4.109375 -10.15625 C 3.921875 -10.332031 3.828125 -10.566406 3.828125 -10.859375 C 3.828125 -11.160156 3.921875 -11.398438 4.109375 -11.578125 C 4.304688 -11.765625 4.5625 -11.859375 4.875 -11.859375 Z M 4.875 -11.859375 "/></g></g></g><g fill="rgb(0%, 0%, 0%)" fill-opacity="1"><g transform="translate(331.578764, 263.306438)"><g><path d="M 1.21875 0 L 1.21875 -8.53125 L 2.84375 -8.53125 L 2.84375 -7.046875 L 2.96875 -7.046875 C 3.082031 -7.566406 3.335938 -7.96875 3.734375 -8.25 C 4.140625 -8.539062 4.644531 -8.6875 5.25 -8.6875 C 5.675781 -8.6875 6.0625 -8.613281 6.40625 -8.46875 C 6.75 -8.320312 7.039062 -8.113281 7.28125 -7.84375 C 7.53125 -7.570312 7.722656 -7.25 7.859375 -6.875 C 7.992188 -6.5 8.0625 -6.078125 8.0625 -5.609375 L 8.0625 0 L 6.375 0 L 6.375 -5.375 C 6.375 -5.957031 6.21875 -6.410156 5.90625 -6.734375 C 5.601562 -7.054688 5.191406 -7.21875 4.671875 -7.21875 C 4.128906 -7.21875 3.703125 -7.046875 3.390625 -6.703125 C 3.078125 -6.367188 2.921875 -5.90625 2.921875 -5.3125 L 2.921875 0 Z M 1.21875 0 "/></g></g></g><g fill="rgb(0%, 0%, 0%)" fill-opacity="1"><g transform="translate(340.874112, 263.306438)"><g><path d="M 1 -5.390625 C 1 -5.890625 1.066406 -6.34375 1.203125 -6.75 C 1.335938 -7.15625 1.535156 -7.5 1.796875 -7.78125 C 2.054688 -8.070312 2.363281 -8.296875 2.71875 -8.453125 C 3.082031 -8.609375 3.488281 -8.6875 3.9375 -8.6875 C 4.5625 -8.6875 5.085938 -8.535156 5.515625 -8.234375 C 5.941406 -7.929688 6.21875 -7.507812 6.34375 -6.96875 L 6.453125 -6.96875 L 6.453125 -8.53125 L 8.0625 -8.53125 L 8.0625 -0.5625 C 8.0625 0.414062 7.753906 1.179688 7.140625 1.734375 C 6.523438 2.285156 5.679688 2.5625 4.609375 2.5625 L 2.40625 2.5625 L 2.40625 1.09375 L 4.609375 1.09375 C 5.148438 1.09375 5.578125 0.945312 5.890625 0.65625 C 6.210938 0.363281 6.375 -0.0390625 6.375 -0.5625 L 6.375 -0.8125 L 6.4375 -2.4375 L 6.34375 -2.4375 C 6.207031 -1.894531 5.925781 -1.472656 5.5 -1.171875 C 5.070312 -0.878906 4.546875 -0.734375 3.921875 -0.734375 C 3.472656 -0.734375 3.070312 -0.804688 2.71875 -0.953125 C 2.363281 -1.109375 2.054688 -1.328125 1.796875 -1.609375 C 1.546875 -1.898438 1.347656 -2.25 1.203125 -2.65625 C 1.066406 -3.0625 1 -3.515625 1 -4.015625 Z M 2.734375 -4.03125 C 2.734375 -3.457031 2.894531 -3.007812 3.21875 -2.6875 C 3.539062 -2.363281 3.984375 -2.203125 4.546875 -2.203125 C 5.109375 -2.203125 5.550781 -2.363281 5.875 -2.6875 C 6.207031 -3.019531 6.375 -3.46875 6.375 -4.03125 L 6.375 -5.375 C 6.375 -5.945312 6.207031 -6.394531 5.875 -6.71875 C 5.550781 -7.039062 5.109375 -7.203125 4.546875 -7.203125 C 3.984375 -7.203125 3.539062 -7.039062 3.21875 -6.71875 C 2.894531 -6.394531 2.734375 -5.945312 2.734375 -5.375 Z M 2.734375 -4.03125 "/></g></g></g></svg>